<?xml version="1.0" encoding="UTF-8" standalone="no"?>
<!DOCTYPE svg PUBLIC "-//W3C//DTD SVG 1.1//EN" "http://www.w3.org/Graphics/SVG/1.1/DTD/svg11.dtd">
<svg width="100%" height="100%" viewBox="0 0 512 512" version="1.1" xmlns="http://www.w3.org/2000/svg" xmlns:xlink="http://www.w3.org/1999/xlink" xml:space="preserve" xmlns:serif="http://www.serif.com/" style="fill-rule:evenodd;clip-rule:evenodd;stroke-linejoin:round;stroke-miterlimit:2;">
    <g transform="matrix(1.27681,0,0,1.27681,-70.8628,-50.1147)">
        <g transform="matrix(1,0,0,1,8.5,-7)">
            <path d="M448,122.753C448,120.68 446.32,119 444.247,119C406.084,119 88.916,119 50.753,119C48.68,119 47,120.68 47,122.753C47,128.516 47,139.484 47,145.247C47,147.32 48.68,149 50.753,149C88.916,149 406.084,149 444.247,149C446.32,149 448,147.32 448,145.247C448,139.484 448,128.516 448,122.753Z" style="fill:rgb(64,64,64);"/>
            <clipPath id="_clip1">
                <path d="M448,122.753C448,120.68 446.32,119 444.247,119C406.084,119 88.916,119 50.753,119C48.68,119 47,120.68 47,122.753C47,128.516 47,139.484 47,145.247C47,147.32 48.68,149 50.753,149C88.916,149 406.084,149 444.247,149C446.32,149 448,147.32 448,145.247C448,139.484 448,128.516 448,122.753Z"/>
            </clipPath>
            <g clip-path="url(#_clip1)">
                <g transform="matrix(1,0,0,1,-8.5,7)">
                    <rect x="42" y="127" width="440" height="24"/>
                </g>
            </g>
        </g>
        <g transform="matrix(1,0,0,1,8.5,218.5)">
            <path d="M448,122.753C448,120.68 446.32,119 444.247,119C406.084,119 88.916,119 50.753,119C48.68,119 47,120.68 47,122.753C47,128.516 47,139.484 47,145.247C47,147.32 48.68,149 50.753,149C88.916,149 406.084,149 444.247,149C446.32,149 448,147.32 448,145.247C448,139.484 448,128.516 448,122.753Z" style="fill:rgb(64,64,64);"/>
            <clipPath id="_clip2">
                <path d="M448,122.753C448,120.68 446.32,119 444.247,119C406.084,119 88.916,119 50.753,119C48.68,119 47,120.68 47,122.753C47,128.516 47,139.484 47,145.247C47,147.32 48.68,149 50.753,149C88.916,149 406.084,149 444.247,149C446.32,149 448,147.32 448,145.247C448,139.484 448,128.516 448,122.753Z"/>
            </clipPath>
            <g clip-path="url(#_clip2)">
                <g transform="matrix(1,0,0,1,-8.5,7)">
                    <rect x="42" y="127" width="440" height="24"/>
                </g>
            </g>
        </g>
        <g transform="matrix(1,0,0,1,8.5,-7.5)">
            <path d="M424,155.999C424,152.133 420.867,149 417.001,149C371.934,149 123.066,149 77.999,149C74.133,149 71,152.133 71,155.999C71,156 71,156 71,156.001C71,159.867 74.133,163 77.999,163C123.066,163 371.934,163 417.001,163C420.867,163 424,159.867 424,156.001C424,156 424,156 424,155.999Z" style="fill:rgb(233,80,80);"/>
            <clipPath id="_clip3">
                <path d="M424,155.999C424,152.133 420.867,149 417.001,149C371.934,149 123.066,149 77.999,149C74.133,149 71,152.133 71,155.999C71,156 71,156 71,156.001C71,159.867 74.133,163 77.999,163C123.066,163 371.934,163 417.001,163C420.867,163 424,159.867 424,156.001C424,156 424,156 424,155.999Z"/>
            </clipPath>
            <g clip-path="url(#_clip3)">
                <g transform="matrix(1,0,0,1,-8.5,6)">
                    <rect x="72" y="152" width="370" height="34" style="fill:rgb(185,60,60);"/>
                </g>
            </g>
        </g>
        <g transform="matrix(1,0,0,1,8.5,20.5)">
            <path d="M424,155.999C424,152.133 420.867,149 417.001,149C371.934,149 123.066,149 77.999,149C74.133,149 71,152.133 71,155.999C71,156 71,156 71,156.001C71,159.867 74.133,163 77.999,163C123.066,163 371.934,163 417.001,163C420.867,163 424,159.867 424,156.001C424,156 424,156 424,155.999Z" style="fill:rgb(233,80,80);"/>
            <clipPath id="_clip4">
                <path d="M424,155.999C424,152.133 420.867,149 417.001,149C371.934,149 123.066,149 77.999,149C74.133,149 71,152.133 71,155.999C71,156 71,156 71,156.001C71,159.867 74.133,163 77.999,163C123.066,163 371.934,163 417.001,163C420.867,163 424,159.867 424,156.001C424,156 424,156 424,155.999Z"/>
            </clipPath>
            <g clip-path="url(#_clip4)">
                <g transform="matrix(1,0,0,1,-8.5,6)">
                    <rect x="72" y="152" width="370" height="34" style="fill:rgb(185,60,60);"/>
                </g>
            </g>
        </g>
        <g transform="matrix(1,0,0,1,8.5,48.5)">
            <path d="M424,155.999C424,152.133 420.867,149 417.001,149C371.934,149 123.066,149 77.999,149C74.133,149 71,152.133 71,155.999C71,156 71,156 71,156.001C71,159.867 74.133,163 77.999,163C123.066,163 371.934,163 417.001,163C420.867,163 424,159.867 424,156.001C424,156 424,156 424,155.999Z" style="fill:rgb(233,80,80);"/>
            <clipPath id="_clip5">
                <path d="M424,155.999C424,152.133 420.867,149 417.001,149C371.934,149 123.066,149 77.999,149C74.133,149 71,152.133 71,155.999C71,156 71,156 71,156.001C71,159.867 74.133,163 77.999,163C123.066,163 371.934,163 417.001,163C420.867,163 424,159.867 424,156.001C424,156 424,156 424,155.999Z"/>
            </clipPath>
            <g clip-path="url(#_clip5)">
                <g transform="matrix(1,0,0,1,-8.5,6)">
                    <rect x="72" y="152" width="370" height="34" style="fill:rgb(185,60,60);"/>
                </g>
            </g>
        </g>
        <g transform="matrix(1,0,0,1,8.5,76.5)">
            <path d="M424,155.999C424,152.133 420.867,149 417.001,149C371.934,149 123.066,149 77.999,149C74.133,149 71,152.133 71,155.999C71,156 71,156 71,156.001C71,159.867 74.133,163 77.999,163C123.066,163 371.934,163 417.001,163C420.867,163 424,159.867 424,156.001C424,156 424,156 424,155.999Z" style="fill:rgb(233,80,80);"/>
            <clipPath id="_clip6">
                <path d="M424,155.999C424,152.133 420.867,149 417.001,149C371.934,149 123.066,149 77.999,149C74.133,149 71,152.133 71,155.999C71,156 71,156 71,156.001C71,159.867 74.133,163 77.999,163C123.066,163 371.934,163 417.001,163C420.867,163 424,159.867 424,156.001C424,156 424,156 424,155.999Z"/>
            </clipPath>
            <g clip-path="url(#_clip6)">
                <g transform="matrix(1,0,0,1,-8.5,6)">
                    <rect x="72" y="152" width="370" height="34" style="fill:rgb(185,60,60);"/>
                </g>
            </g>
        </g>
        <g transform="matrix(1,0,0,1,8.5,104.5)">
            <path d="M424,155.999C424,152.133 420.867,149 417.001,149C371.934,149 123.066,149 77.999,149C74.133,149 71,152.133 71,155.999C71,156 71,156 71,156.001C71,159.867 74.133,163 77.999,163C123.066,163 371.934,163 417.001,163C420.867,163 424,159.867 424,156.001C424,156 424,156 424,155.999Z" style="fill:rgb(233,80,80);"/>
            <clipPath id="_clip7">
                <path d="M424,155.999C424,152.133 420.867,149 417.001,149C371.934,149 123.066,149 77.999,149C74.133,149 71,152.133 71,155.999C71,156 71,156 71,156.001C71,159.867 74.133,163 77.999,163C123.066,163 371.934,163 417.001,163C420.867,163 424,159.867 424,156.001C424,156 424,156 424,155.999Z"/>
            </clipPath>
            <g clip-path="url(#_clip7)">
                <g transform="matrix(1,0,0,1,-8.5,6)">
                    <rect x="72" y="152" width="370" height="34" style="fill:rgb(185,60,60);"/>
                </g>
            </g>
        </g>
        <g transform="matrix(1,0,0,1,8.5,132.5)">
            <path d="M424,155.999C424,152.133 420.867,149 417.001,149C371.934,149 123.066,149 77.999,149C74.133,149 71,152.133 71,155.999C71,156 71,156 71,156.001C71,159.867 74.133,163 77.999,163C123.066,163 371.934,163 417.001,163C420.867,163 424,159.867 424,156.001C424,156 424,156 424,155.999Z" style="fill:rgb(233,80,80);"/>
            <clipPath id="_clip8">
                <path d="M424,155.999C424,152.133 420.867,149 417.001,149C371.934,149 123.066,149 77.999,149C74.133,149 71,152.133 71,155.999C71,156 71,156 71,156.001C71,159.867 74.133,163 77.999,163C123.066,163 371.934,163 417.001,163C420.867,163 424,159.867 424,156.001C424,156 424,156 424,155.999Z"/>
            </clipPath>
            <g clip-path="url(#_clip8)">
                <g transform="matrix(1,0,0,1,-8.5,6)">
                    <rect x="72" y="152" width="370" height="34" style="fill:rgb(185,60,60);"/>
                </g>
            </g>
        </g>
        <g transform="matrix(1,0,0,1,8.5,160.5)">
            <path d="M424,155.999C424,152.133 420.867,149 417.001,149C371.934,149 123.066,149 77.999,149C74.133,149 71,152.133 71,155.999C71,156 71,156 71,156.001C71,159.867 74.133,163 77.999,163C123.066,163 371.934,163 417.001,163C420.867,163 424,159.867 424,156.001C424,156 424,156 424,155.999Z" style="fill:rgb(233,80,80);"/>
            <clipPath id="_clip9">
                <path d="M424,155.999C424,152.133 420.867,149 417.001,149C371.934,149 123.066,149 77.999,149C74.133,149 71,152.133 71,155.999C71,156 71,156 71,156.001C71,159.867 74.133,163 77.999,163C123.066,163 371.934,163 417.001,163C420.867,163 424,159.867 424,156.001C424,156 424,156 424,155.999Z"/>
            </clipPath>
            <g clip-path="url(#_clip9)">
                <g transform="matrix(1,0,0,1,-8.5,6)">
                    <rect x="72" y="152" width="370" height="34" style="fill:rgb(185,60,60);"/>
                </g>
            </g>
        </g>
        <g transform="matrix(1,0,0,1,8.5,6.5)">
            <path d="M424,155.999C424,152.133 420.867,149 417.001,149C371.934,149 123.066,149 77.999,149C74.133,149 71,152.133 71,155.999C71,156 71,156 71,156.001C71,159.867 74.133,163 77.999,163C123.066,163 371.934,163 417.001,163C420.867,163 424,159.867 424,156.001C424,156 424,156 424,155.999Z" style="fill:rgb(233,80,80);"/>
            <clipPath id="_clip10">
                <path d="M424,155.999C424,152.133 420.867,149 417.001,149C371.934,149 123.066,149 77.999,149C74.133,149 71,152.133 71,155.999C71,156 71,156 71,156.001C71,159.867 74.133,163 77.999,163C123.066,163 371.934,163 417.001,163C420.867,163 424,159.867 424,156.001C424,156 424,156 424,155.999Z"/>
            </clipPath>
            <g clip-path="url(#_clip10)">
                <g transform="matrix(1,0,0,1,-8.5,6)">
                    <rect x="72" y="152" width="370" height="34" style="fill:rgb(185,60,60);"/>
                </g>
            </g>
        </g>
        <g transform="matrix(1,0,0,1,8.5,34.5)">
            <path d="M424,155.999C424,152.133 420.867,149 417.001,149C371.934,149 123.066,149 77.999,149C74.133,149 71,152.133 71,155.999C71,156 71,156 71,156.001C71,159.867 74.133,163 77.999,163C123.066,163 371.934,163 417.001,163C420.867,163 424,159.867 424,156.001C424,156 424,156 424,155.999Z" style="fill:rgb(233,80,80);"/>
            <clipPath id="_clip11">
                <path d="M424,155.999C424,152.133 420.867,149 417.001,149C371.934,149 123.066,149 77.999,149C74.133,149 71,152.133 71,155.999C71,156 71,156 71,156.001C71,159.867 74.133,163 77.999,163C123.066,163 371.934,163 417.001,163C420.867,163 424,159.867 424,156.001C424,156 424,156 424,155.999Z"/>
            </clipPath>
            <g clip-path="url(#_clip11)">
                <g transform="matrix(1,0,0,1,-8.5,6)">
                    <rect x="72" y="152" width="370" height="34" style="fill:rgb(185,60,60);"/>
                </g>
            </g>
        </g>
        <g transform="matrix(1,0,0,1,8.5,62.5)">
            <path d="M424,155.999C424,152.133 420.867,149 417.001,149C371.934,149 123.066,149 77.999,149C74.133,149 71,152.133 71,155.999C71,156 71,156 71,156.001C71,159.867 74.133,163 77.999,163C123.066,163 371.934,163 417.001,163C420.867,163 424,159.867 424,156.001C424,156 424,156 424,155.999Z" style="fill:rgb(233,80,80);"/>
            <clipPath id="_clip12">
                <path d="M424,155.999C424,152.133 420.867,149 417.001,149C371.934,149 123.066,149 77.999,149C74.133,149 71,152.133 71,155.999C71,156 71,156 71,156.001C71,159.867 74.133,163 77.999,163C123.066,163 371.934,163 417.001,163C420.867,163 424,159.867 424,156.001C424,156 424,156 424,155.999Z"/>
            </clipPath>
            <g clip-path="url(#_clip12)">
                <g transform="matrix(1,0,0,1,-8.5,6)">
                    <rect x="72" y="152" width="370" height="34" style="fill:rgb(185,60,60);"/>
                </g>
            </g>
        </g>
        <g transform="matrix(1,0,0,1,8.5,90.5)">
            <path d="M424,155.999C424,152.133 420.867,149 417.001,149C371.934,149 123.066,149 77.999,149C74.133,149 71,152.133 71,155.999C71,156 71,156 71,156.001C71,159.867 74.133,163 77.999,163C123.066,163 371.934,163 417.001,163C420.867,163 424,159.867 424,156.001C424,156 424,156 424,155.999Z" style="fill:rgb(233,80,80);"/>
            <clipPath id="_clip13">
                <path d="M424,155.999C424,152.133 420.867,149 417.001,149C371.934,149 123.066,149 77.999,149C74.133,149 71,152.133 71,155.999C71,156 71,156 71,156.001C71,159.867 74.133,163 77.999,163C123.066,163 371.934,163 417.001,163C420.867,163 424,159.867 424,156.001C424,156 424,156 424,155.999Z"/>
            </clipPath>
            <g clip-path="url(#_clip13)">
                <g transform="matrix(1,0,0,1,-8.5,6)">
                    <rect x="72" y="152" width="370" height="34" style="fill:rgb(185,60,60);"/>
                </g>
            </g>
        </g>
        <g transform="matrix(1,0,0,1,8.5,118.5)">
            <path d="M424,155.999C424,152.133 420.867,149 417.001,149C371.934,149 123.066,149 77.999,149C74.133,149 71,152.133 71,155.999C71,156 71,156 71,156.001C71,159.867 74.133,163 77.999,163C123.066,163 371.934,163 417.001,163C420.867,163 424,159.867 424,156.001C424,156 424,156 424,155.999Z" style="fill:rgb(233,80,80);"/>
            <clipPath id="_clip14">
                <path d="M424,155.999C424,152.133 420.867,149 417.001,149C371.934,149 123.066,149 77.999,149C74.133,149 71,152.133 71,155.999C71,156 71,156 71,156.001C71,159.867 74.133,163 77.999,163C123.066,163 371.934,163 417.001,163C420.867,163 424,159.867 424,156.001C424,156 424,156 424,155.999Z"/>
            </clipPath>
            <g clip-path="url(#_clip14)">
                <g transform="matrix(1,0,0,1,-8.5,6)">
                    <rect x="72" y="152" width="370" height="34" style="fill:rgb(185,60,60);"/>
                </g>
            </g>
        </g>
        <g transform="matrix(1,0,0,1,8.5,146.5)">
            <path d="M424,155.999C424,152.133 420.867,149 417.001,149C371.934,149 123.066,149 77.999,149C74.133,149 71,152.133 71,155.999C71,156 71,156 71,156.001C71,159.867 74.133,163 77.999,163C123.066,163 371.934,163 417.001,163C420.867,163 424,159.867 424,156.001C424,156 424,156 424,155.999Z" style="fill:rgb(233,80,80);"/>
            <clipPath id="_clip15">
                <path d="M424,155.999C424,152.133 420.867,149 417.001,149C371.934,149 123.066,149 77.999,149C74.133,149 71,152.133 71,155.999C71,156 71,156 71,156.001C71,159.867 74.133,163 77.999,163C123.066,163 371.934,163 417.001,163C420.867,163 424,159.867 424,156.001C424,156 424,156 424,155.999Z"/>
            </clipPath>
            <g clip-path="url(#_clip15)">
                <g transform="matrix(1,0,0,1,-8.5,6)">
                    <rect x="72" y="152" width="370" height="34" style="fill:rgb(185,60,60);"/>
                </g>
            </g>
        </g>
        <g transform="matrix(1,0,0,1,8.5,174.5)">
            <path d="M424,155.999C424,152.133 420.867,149 417.001,149C371.934,149 123.066,149 77.999,149C74.133,149 71,152.133 71,155.999C71,156 71,156 71,156.001C71,159.867 74.133,163 77.999,163C123.066,163 371.934,163 417.001,163C420.867,163 424,159.867 424,156.001C424,156 424,156 424,155.999Z" style="fill:rgb(233,80,80);"/>
            <clipPath id="_clip16">
                <path d="M424,155.999C424,152.133 420.867,149 417.001,149C371.934,149 123.066,149 77.999,149C74.133,149 71,152.133 71,155.999C71,156 71,156 71,156.001C71,159.867 74.133,163 77.999,163C123.066,163 371.934,163 417.001,163C420.867,163 424,159.867 424,156.001C424,156 424,156 424,155.999Z"/>
            </clipPath>
            <g clip-path="url(#_clip16)">
                <g transform="matrix(1,0,0,1,-8.5,6)">
                    <rect x="72" y="152" width="370" height="34" style="fill:rgb(185,60,60);"/>
                </g>
            </g>
        </g>
    </g>
</svg>
