<?xml version="1.0" encoding="UTF-8" standalone="no"?>
<!DOCTYPE svg PUBLIC "-//W3C//DTD SVG 1.1//EN" "http://www.w3.org/Graphics/SVG/1.1/DTD/svg11.dtd">
<svg width="100%" height="100%" viewBox="0 0 512 174" version="1.1" xmlns="http://www.w3.org/2000/svg" xmlns:xlink="http://www.w3.org/1999/xlink" xml:space="preserve" xmlns:serif="http://www.serif.com/" style="fill-rule:evenodd;clip-rule:evenodd;stroke-linejoin:round;stroke-miterlimit:2;">
    <g transform="matrix(20.6418,0,0,20.6418,-4783.31,-4502.71)">
        <g transform="matrix(12,0,0,12,230.889,226.535)">
            <path d="M0.268,-0.547L0.268,-0.393L0.577,-0.393L0.577,-0.24L0.268,-0.24L0.268,-0L0.07,-0L0.07,-0.7L0.619,-0.7L0.619,-0.547L0.268,-0.547Z" style="fill-rule:nonzero;"/>
        </g>
        <g transform="matrix(12,0,0,12,238.269,226.535)">
            <path d="M0.539,-0.136L0.243,-0.136L0.188,-0L-0.014,-0L0.295,-0.7L0.49,-0.7L0.8,-0L0.594,-0L0.539,-0.136ZM0.481,-0.282L0.391,-0.506L0.301,-0.282L0.481,-0.282Z" style="fill-rule:nonzero;"/>
        </g>
        <g transform="matrix(12,0,0,12,247.701,226.535)">
            <path d="M0.608,-0.365C0.648,-0.351 0.679,-0.329 0.702,-0.3C0.725,-0.27 0.736,-0.234 0.736,-0.192C0.736,-0.131 0.711,-0.083 0.662,-0.05C0.613,-0.017 0.541,-0 0.448,-0L0.07,-0L0.07,-0.7L0.428,-0.7C0.517,-0.7 0.585,-0.684 0.632,-0.651C0.679,-0.618 0.702,-0.573 0.702,-0.517C0.702,-0.484 0.694,-0.454 0.678,-0.428C0.661,-0.401 0.638,-0.38 0.608,-0.365ZM0.266,-0.557L0.266,-0.422L0.402,-0.422C0.469,-0.422 0.502,-0.445 0.502,-0.49C0.502,-0.535 0.469,-0.557 0.402,-0.557L0.266,-0.557ZM0.432,-0.143C0.501,-0.143 0.536,-0.167 0.536,-0.214C0.536,-0.261 0.501,-0.285 0.432,-0.285L0.266,-0.285L0.266,-0.143L0.432,-0.143Z" style="fill-rule:nonzero;"/>
        </g>
    </g>
</svg>
