<?xml version="1.0" encoding="UTF-8" standalone="no"?>
<!DOCTYPE svg PUBLIC "-//W3C//DTD SVG 1.1//EN" "http://www.w3.org/Graphics/SVG/1.1/DTD/svg11.dtd">
<svg width="100%" height="100%" viewBox="0 0 505 57" version="1.1" xmlns="http://www.w3.org/2000/svg" xmlns:xlink="http://www.w3.org/1999/xlink" xml:space="preserve" xmlns:serif="http://www.serif.com/" style="fill-rule:evenodd;clip-rule:evenodd;stroke-linejoin:round;stroke-miterlimit:2;">
    <g transform="matrix(5.94818,0,0,5.94818,-1096.33,-1928.39)">
        <g transform="matrix(12,0,0,12,184.131,333.165)">
            <path d="M0.293,-0.522L0.293,-0.402L0.585,-0.402L0.585,-0.224L0.293,-0.224L0.293,-0L0.057,-0L0.057,-0.7L0.626,-0.7L0.626,-0.522L0.293,-0.522Z" style="fill-rule:nonzero;"/>
        </g>
        <g transform="matrix(12,0,0,12,191.559,333.165)">
            <path d="M0.534,-0.122L0.268,-0.122L0.221,-0L-0.019,-0L0.287,-0.7L0.519,-0.7L0.825,-0L0.581,-0L0.534,-0.122ZM0.469,-0.292L0.401,-0.468L0.333,-0.292L0.469,-0.292Z" style="fill-rule:nonzero;"/>
        </g>
        <g transform="matrix(12,0,0,12,201.231,333.165)">
            <path d="M0.617,-0.366C0.658,-0.351 0.69,-0.328 0.713,-0.299C0.736,-0.27 0.747,-0.234 0.747,-0.193C0.747,-0.132 0.722,-0.084 0.671,-0.051C0.62,-0.017 0.547,-0 0.451,-0L0.057,-0L0.057,-0.7L0.431,-0.7C0.524,-0.7 0.595,-0.683 0.643,-0.65C0.69,-0.617 0.714,-0.572 0.714,-0.517C0.714,-0.484 0.706,-0.455 0.69,-0.429C0.673,-0.403 0.649,-0.382 0.617,-0.366ZM0.289,-0.535L0.289,-0.431L0.399,-0.431C0.45,-0.431 0.476,-0.448 0.476,-0.483C0.476,-0.518 0.45,-0.535 0.399,-0.535L0.289,-0.535ZM0.431,-0.165C0.483,-0.165 0.509,-0.183 0.509,-0.22C0.509,-0.257 0.483,-0.275 0.431,-0.275L0.289,-0.275L0.289,-0.165L0.431,-0.165Z" style="fill-rule:nonzero;"/>
        </g>
        <g transform="matrix(12,0,0,12,210.507,333.165)">
            <path d="M0.173,-0.654L0.173,-0.355L0.546,-0.355L0.546,-0.309L0.173,-0.309L0.173,-0L0.122,-0L0.122,-0.7L0.59,-0.7L0.59,-0.654L0.173,-0.654Z" style="fill-rule:nonzero;"/>
        </g>
        <g transform="matrix(12,0,0,12,217.971,333.165)">
            <path d="M0.419,0.005C0.35,0.005 0.288,-0.011 0.233,-0.042C0.178,-0.073 0.134,-0.115 0.102,-0.169C0.071,-0.223 0.055,-0.283 0.055,-0.35C0.055,-0.417 0.071,-0.477 0.102,-0.531C0.134,-0.585 0.178,-0.627 0.233,-0.659C0.288,-0.69 0.35,-0.705 0.419,-0.705C0.488,-0.705 0.55,-0.69 0.605,-0.659C0.66,-0.628 0.704,-0.586 0.736,-0.532C0.767,-0.478 0.783,-0.417 0.783,-0.35C0.783,-0.283 0.767,-0.222 0.736,-0.168C0.704,-0.114 0.66,-0.072 0.605,-0.041C0.55,-0.01 0.488,0.005 0.419,0.005ZM0.419,-0.042C0.478,-0.042 0.531,-0.055 0.578,-0.082C0.625,-0.109 0.663,-0.146 0.69,-0.193C0.717,-0.239 0.731,-0.292 0.731,-0.35C0.731,-0.408 0.717,-0.461 0.69,-0.507C0.663,-0.555 0.625,-0.591 0.578,-0.618C0.531,-0.645 0.478,-0.658 0.419,-0.658C0.36,-0.658 0.307,-0.645 0.26,-0.618C0.212,-0.591 0.174,-0.555 0.147,-0.507C0.12,-0.461 0.106,-0.408 0.106,-0.35C0.106,-0.292 0.12,-0.239 0.147,-0.193C0.174,-0.146 0.212,-0.109 0.26,-0.082C0.307,-0.055 0.36,-0.042 0.419,-0.042Z" style="fill-rule:nonzero;"/>
        </g>
        <g transform="matrix(12,0,0,12,228.027,333.165)">
            <path d="M0.608,-0L0.441,-0.234C0.416,-0.231 0.394,-0.229 0.373,-0.229L0.173,-0.229L0.173,-0L0.122,-0L0.122,-0.7L0.373,-0.7C0.461,-0.7 0.53,-0.679 0.58,-0.637C0.63,-0.596 0.655,-0.538 0.655,-0.464C0.655,-0.409 0.641,-0.362 0.613,-0.325C0.584,-0.287 0.544,-0.26 0.491,-0.245L0.666,-0L0.608,-0ZM0.373,-0.274C0.448,-0.274 0.505,-0.291 0.544,-0.324C0.583,-0.357 0.603,-0.403 0.603,-0.464C0.603,-0.525 0.583,-0.572 0.544,-0.605C0.505,-0.637 0.448,-0.654 0.373,-0.654L0.173,-0.654L0.173,-0.274L0.373,-0.274Z" style="fill-rule:nonzero;"/>
        </g>
        <g transform="matrix(12,0,0,12,236.667,333.165)">
            <path d="M0.605,-0.046L0.605,-0L0.122,-0L0.122,-0.7L0.59,-0.7L0.59,-0.654L0.173,-0.654L0.173,-0.378L0.546,-0.378L0.546,-0.333L0.173,-0.333L0.173,-0.046L0.605,-0.046Z" style="fill-rule:nonzero;"/>
        </g>
        <g transform="matrix(12,0,0,12,244.575,333.165)">
            <path d="M0.681,-0.7L0.369,-0L0.318,-0L0.006,-0.7L0.062,-0.7L0.345,-0.066L0.628,-0.7L0.681,-0.7Z" style="fill-rule:nonzero;"/>
        </g>
        <g transform="matrix(12,0,0,12,252.639,333.165)">
            <path d="M0.605,-0.046L0.605,-0L0.122,-0L0.122,-0.7L0.59,-0.7L0.59,-0.654L0.173,-0.654L0.173,-0.378L0.546,-0.378L0.546,-0.333L0.173,-0.333L0.173,-0.046L0.605,-0.046Z" style="fill-rule:nonzero;"/>
        </g>
        <g transform="matrix(12,0,0,12,260.667,333.165)">
            <path d="M0.608,-0L0.441,-0.234C0.416,-0.231 0.394,-0.229 0.373,-0.229L0.173,-0.229L0.173,-0L0.122,-0L0.122,-0.7L0.373,-0.7C0.461,-0.7 0.53,-0.679 0.58,-0.637C0.63,-0.596 0.655,-0.538 0.655,-0.464C0.655,-0.409 0.641,-0.362 0.613,-0.325C0.584,-0.287 0.544,-0.26 0.491,-0.245L0.666,-0L0.608,-0ZM0.373,-0.274C0.448,-0.274 0.505,-0.291 0.544,-0.324C0.583,-0.357 0.603,-0.403 0.603,-0.464C0.603,-0.525 0.583,-0.572 0.544,-0.605C0.505,-0.637 0.448,-0.654 0.373,-0.654L0.173,-0.654L0.173,-0.274L0.373,-0.274Z" style="fill-rule:nonzero;"/>
        </g>
    </g>
</svg>
