<?xml version="1.0" encoding="UTF-8" standalone="no"?>
<!DOCTYPE svg PUBLIC "-//W3C//DTD SVG 1.1//EN" "http://www.w3.org/Graphics/SVG/1.1/DTD/svg11.dtd">
<svg width="100%" height="100%" viewBox="0 0 997 1128" version="1.1" xmlns="http://www.w3.org/2000/svg" xmlns:xlink="http://www.w3.org/1999/xlink" xml:space="preserve" xmlns:serif="http://www.serif.com/" style="fill-rule:evenodd;clip-rule:evenodd;stroke-linejoin:round;stroke-miterlimit:2;">
    <g transform="matrix(0,1,1,0,669.434,330.734)">
        <path d="M-222.292,-171.288L200.622,-171.288L171.13,-222.292L-251.628,-222.292L-222.292,-171.288Z" style="fill:rgb(50,38,66);fill-rule:nonzero;"/>
    </g>
    <g transform="matrix(0.866854,0.498562,0.498562,-0.866854,456.561,63.5284)">
        <path d="M-0.398,-18.2L58.441,-18.2L68.147,-1.488L9.311,-1.489L-0.398,-18.2Z" style="fill:rgb(109,102,124);fill-rule:nonzero;"/>
    </g>
    <g transform="matrix(0,1,1,0,713.154,306.703)">
        <path d="M-198.261,-215.007L224.654,-215.007L215.005,-198.261L-207.908,-198.261L-198.261,-215.007Z" style="fill:rgb(61,48,77);fill-rule:nonzero;"/>
    </g>
    <g transform="matrix(1,0,0,1,0.0004,1127.94)">
        <path d="M0,-386.777L0,-346.228C0,-329.764 8.755,-314.543 22.986,-306.264L549.486,0L549.486,-68.967L0,-386.777Z" style="fill:rgb(237,65,54);fill-rule:nonzero;"/>
    </g>
    <g transform="matrix(0.865641,0.500666,0.500666,-0.865641,81.7766,495.641)">
        <path d="M52.135,-253.476L686.91,-253.476L944.507,194.312L309.777,194.283L52.135,-253.476Z" style="fill:rgb(92,82,108);fill-rule:nonzero;"/>
    </g>
    <g transform="matrix(1,0,0,1,549.487,869.288)">
        <path d="M0,189.684L0,258.652L424.095,13.342C438.381,5.079 447.179,-10.173 447.179,-26.677L447.179,-68.968L0,189.684Z" style="fill:rgb(242,82,78);fill-rule:nonzero;"/>
    </g>
    <g transform="matrix(0,1,1,0,782.822,660.886)">
        <path d="M-284.673,129.382L109.962,129.382L-129.538,-284.673L-524.017,-284.673L-284.673,129.382Z" style="fill:rgb(50,36,51);fill-rule:nonzero;"/>
    </g>
    <g transform="matrix(0.865763,0.500454,0.500454,-0.865763,584.533,44.4952)">
        <path d="M-28.56,-123.206L449.695,-123.206L459.326,-106.47L-18.925,-106.474L-28.56,-123.206Z" style="fill:rgb(109,102,124);fill-rule:nonzero;"/>
    </g>
    <g transform="matrix(0,1,1,0,1113.04,560.34)">
        <path d="M-184.127,-200.841L210.509,-200.841L200.838,-184.127L-193.795,-184.127L-184.127,-200.841Z" style="fill:rgb(79,70,94);fill-rule:nonzero;"/>
    </g>
    <g transform="matrix(1,0,0,1,847.288,474.75)">
        <path d="M0,213.441C-1.164,212.513 -1.458,210.729 -1.411,209.309C-1.297,205.878 0.573,202.548 2.99,200.151C4.067,199.083 5.436,198.244 6.957,197.962C7.774,197.81 8.629,197.81 9.36,198.236L-334.606,0.283C-334.683,0.239 -334.762,0.198 -334.842,0.16C-334.87,0.148 -334.897,0.137 -334.924,0.126C-335.81,-0.258 -336.858,-0.174 -337.756,0.12C-338.659,0.416 -339.53,0.925 -340.274,1.513C-340.296,1.531 -340.318,1.549 -340.34,1.567C-340.384,1.602 -340.426,1.637 -340.469,1.672C-343.192,3.924 -345.147,7.467 -345.405,11.01C-345.528,12.704 -345.208,14.81 -343.592,15.747L0.373,213.699C0.309,213.662 0.246,213.621 0.185,213.579C0.167,213.566 0.148,213.553 0.13,213.54C0.086,213.508 0.042,213.475 0,213.441" style="fill:rgb(197,198,211);fill-rule:nonzero;"/>
    </g>
    <g transform="matrix(-0.999996,0.00281225,0.00281225,0.999996,852.195,688.008)">
        <path d="M0.02,-14.581C3.53,-12.568 6.375,-7.672 6.374,-3.647C6.375,0.38 3.529,2.012 0.02,-0.002C-3.488,-2.014 -6.334,-6.91 -6.333,-10.936C-6.334,-14.961 -3.488,-16.593 0.02,-14.581" style="fill:rgb(170,172,186);fill-rule:nonzero;"/>
    </g>
    <g transform="matrix(1,0,0,1,503.696,681.12)">
        <path d="M0,-190.624L343.965,7.328C343.901,7.291 343.838,7.25 343.777,7.208C343.759,7.195 343.741,7.183 343.723,7.169C343.678,7.138 343.635,7.105 343.592,7.07C342.428,6.143 342.134,4.358 342.182,2.938C342.214,1.948 342.407,0.971 342.703,0.018L-1.327,-197.952C-1.581,-197.102 -1.75,-196.231 -1.813,-195.36C-1.936,-193.667 -1.615,-191.561 0,-190.624" style="fill:rgb(170,172,186);fill-rule:nonzero;"/>
    </g>
    <g transform="matrix(1,0,0,1,815.907,547.392)">
        <path d="M0,159.969C-1.164,159.041 -1.458,157.257 -1.411,155.837C-1.297,152.405 0.573,149.076 2.99,146.679C4.067,145.611 5.436,144.772 6.957,144.49C7.774,144.338 8.629,144.338 9.36,144.764L-241.118,0.284C-241.195,0.24 -241.273,0.198 -241.354,0.161C-241.381,0.149 -241.408,0.139 -241.436,0.126C-242.321,-0.258 -243.37,-0.174 -244.268,0.12C-245.17,0.416 -246.042,0.926 -246.786,1.514C-246.808,1.532 -246.83,1.551 -246.852,1.569C-246.895,1.603 -246.938,1.638 -246.98,1.673C-249.704,3.926 -251.658,7.468 -251.917,11.011C-252.04,12.705 -251.719,14.811 -250.104,15.748L0.373,160.227C0.309,160.19 0.246,160.149 0.185,160.107C0.167,160.095 0.148,160.081 0.13,160.068C0.086,160.036 0.042,160.003 0,159.969" style="fill:rgb(197,198,211);fill-rule:nonzero;"/>
    </g>
    <g transform="matrix(-0.999996,0.00288065,0.00288065,0.999996,820.815,707.178)">
        <path d="M0.021,-14.581C3.53,-12.568 6.375,-7.672 6.376,-3.647C6.376,0.38 3.531,2.012 0.021,-0.001C-3.488,-2.014 -6.333,-6.91 -6.333,-10.936C-6.333,-14.961 -3.488,-16.593 0.021,-14.581" style="fill:rgb(170,172,186);fill-rule:nonzero;"/>
    </g>
    <g transform="matrix(1,0,0,1,565.803,700.29)">
        <path d="M0,-137.15L250.477,7.329C250.412,7.291 250.35,7.25 250.289,7.208C250.27,7.197 250.252,7.183 250.234,7.169C250.19,7.138 250.146,7.105 250.104,7.071C248.94,6.143 248.646,4.359 248.693,2.939C248.726,1.95 248.918,0.971 249.214,0.018L-1.327,-144.479C-1.582,-143.628 -1.75,-142.757 -1.813,-141.887C-1.937,-140.193 -1.616,-138.087 0,-137.15" style="fill:rgb(170,172,186);fill-rule:nonzero;"/>
    </g>
    <g transform="matrix(0,1,1,0,850.194,813.096)">
        <path d="M-64.031,16.32L30.046,16.32L-16.542,-64.031L-110.398,-64.031L-64.031,16.32Z" style="fill:rgb(70,70,130);fill-rule:nonzero;"/>
    </g>
    <g transform="matrix(0.866136,0.499809,0.499809,-0.866136,797.644,665.187)">
        <path d="M8.805,-38.228L101.574,-38.228L142.73,32.879L49.964,32.876L8.805,-38.228Z" style="fill:rgb(109,102,179);fill-rule:nonzero;"/>
    </g>
    <g transform="matrix(0,1,1,0,928.637,740.002)">
        <path d="M9.064,-62.122L103.141,-62.122L62.121,9.064L-31.955,9.064L9.064,-62.122Z" style="fill:rgb(89,87,156);fill-rule:nonzero;"/>
    </g>
    <g transform="matrix(-0.865648,-0.500653,-0.500653,0.865648,799.917,727.453)">
        <path d="M-51.238,-5.788L9.747,-5.788L-1.595,13.822L-62.538,13.75L-51.238,-5.788Z" style="fill:rgb(61,48,77);fill-rule:nonzero;"/>
    </g>
    <g transform="matrix(1,0,0,1,802.219,752.548)">
        <path d="M0,-16.868L0,-30.449L-7.841,-34.985L-7.841,-12.332L44.95,18.117L44.95,9.06L0,-16.868Z" style="fill:rgb(109,102,179);fill-rule:nonzero;"/>
    </g>
    <g transform="matrix(-0.865648,-0.500653,-0.500653,0.865648,799.917,758.933)">
        <path d="M-51.238,-5.788L9.747,-5.788L-1.595,13.822L-62.538,13.75L-51.238,-5.788Z" style="fill:rgb(61,48,77);fill-rule:nonzero;"/>
    </g>
    <g transform="matrix(1,0,0,1,802.219,784.027)">
        <path d="M0,-16.866L0,-30.448L-7.841,-34.984L-7.841,-12.331L44.95,18.118L44.95,9.061L0,-16.866Z" style="fill:rgb(109,102,179);fill-rule:nonzero;"/>
    </g>
    <g transform="matrix(0,-1,-1,0,897.651,767.625)">
        <path d="M-7.152,24.919L14.668,24.919L24.919,7.152L3.105,7.152L-7.152,24.919Z" style="fill:rgb(197,198,211);fill-rule:nonzero;"/>
    </g>
    <g transform="matrix(1,0,0,1,769.909,570.878)">
        <path d="M0,159.969C-1.164,159.041 -1.458,157.257 -1.411,155.837C-1.297,152.405 0.573,149.076 2.99,146.678C4.066,145.61 5.436,144.772 6.957,144.49C7.774,144.337 8.629,144.337 9.359,144.763L-241.118,0.283C-241.195,0.24 -241.274,0.198 -241.354,0.161C-241.381,0.148 -241.409,0.138 -241.436,0.126C-242.322,-0.258 -243.37,-0.175 -244.269,0.12C-245.17,0.416 -246.042,0.926 -246.786,1.514C-246.808,1.532 -246.83,1.55 -246.853,1.568C-246.896,1.603 -246.938,1.637 -246.981,1.673C-249.705,3.925 -251.659,7.468 -251.917,11.011C-252.041,12.704 -251.72,14.81 -250.104,15.747L0.373,160.227C0.309,160.19 0.246,160.149 0.185,160.107C0.166,160.094 0.148,160.08 0.13,160.068C0.086,160.036 0.042,160.003 0,159.969" style="fill:rgb(197,198,211);fill-rule:nonzero;"/>
    </g>
    <g transform="matrix(-0.999996,0.00288084,0.00288084,0.999996,774.817,730.662)">
        <path d="M0.021,-14.579C3.53,-12.567 6.375,-7.671 6.376,-3.645C6.376,0.382 3.531,2.013 0.021,0C-3.488,-2.012 -6.333,-6.908 -6.334,-10.934C-6.334,-14.959 -3.489,-16.592 0.021,-14.579" style="fill:rgb(170,172,186);fill-rule:nonzero;"/>
    </g>
    <g transform="matrix(1,0,0,1,519.805,723.776)">
        <path d="M0,-137.151L250.477,7.328C250.413,7.291 250.35,7.25 250.289,7.208C250.27,7.196 250.252,7.182 250.234,7.169C250.19,7.138 250.146,7.105 250.104,7.071C248.94,6.143 248.646,4.359 248.693,2.939C248.726,1.949 248.919,0.971 249.215,0.018L-1.327,-144.479C-1.581,-143.629 -1.749,-142.758 -1.813,-141.887C-1.937,-140.194 -1.616,-138.088 0,-137.151" style="fill:rgb(170,172,186);fill-rule:nonzero;"/>
    </g>
    <g transform="matrix(1,0,0,1,738.527,590.048)">
        <path d="M0,159.969C-1.164,159.041 -1.458,157.257 -1.411,155.837C-1.297,152.405 0.573,149.076 2.99,146.678C4.067,145.61 5.436,144.772 6.957,144.49C7.774,144.337 8.629,144.337 9.359,144.763L-241.118,0.283C-241.195,0.24 -241.274,0.198 -241.354,0.16C-241.381,0.148 -241.409,0.138 -241.436,0.126C-242.321,-0.258 -243.37,-0.174 -244.268,0.12C-245.171,0.416 -246.042,0.926 -246.786,1.514C-246.808,1.532 -246.83,1.55 -246.852,1.568C-246.895,1.603 -246.938,1.637 -246.981,1.673C-249.704,3.925 -251.659,7.468 -251.917,11.011C-252.041,12.705 -251.72,14.811 -250.104,15.747L0.373,160.227C0.309,160.189 0.246,160.149 0.185,160.107C0.167,160.094 0.148,160.08 0.13,160.068C0.086,160.036 0.042,160.003 0,159.969" style="fill:rgb(197,198,211);fill-rule:nonzero;"/>
    </g>
    <g transform="matrix(-0.999996,0.00288084,0.00288084,0.999996,743.436,749.833)">
        <path d="M0.021,-14.58C3.53,-12.568 6.375,-7.672 6.376,-3.646C6.376,0.381 3.531,2.012 0.021,-0.001C-3.488,-2.013 -6.333,-6.909 -6.334,-10.935C-6.334,-14.96 -3.489,-16.592 0.021,-14.58" style="fill:rgb(170,172,186);fill-rule:nonzero;"/>
    </g>
    <g transform="matrix(1,0,0,1,488.424,742.946)">
        <path d="M0,-137.151L250.477,7.328C250.412,7.29 250.35,7.25 250.288,7.208C250.27,7.196 250.251,7.182 250.234,7.169C250.189,7.138 250.146,7.105 250.104,7.071C248.94,6.143 248.646,4.359 248.693,2.939C248.726,1.949 248.918,0.971 249.214,0.018L-1.327,-144.479C-1.582,-143.628 -1.75,-142.758 -1.813,-141.887C-1.937,-140.193 -1.616,-138.088 0,-137.151" style="fill:rgb(170,172,186);fill-rule:nonzero;"/>
    </g>
    <g transform="matrix(0,1,1,0,771.179,858.36)">
        <path d="M-64.031,16.321L30.046,16.321L-16.542,-64.031L-110.398,-64.031L-64.031,16.321Z" style="fill:rgb(70,70,130);fill-rule:nonzero;"/>
    </g>
    <g transform="matrix(0.866139,0.499804,0.499804,-0.866139,718.629,710.451)">
        <path d="M8.805,-38.228L101.575,-38.228L142.73,32.879L49.964,32.876L8.805,-38.228Z" style="fill:rgb(109,102,179);fill-rule:nonzero;"/>
    </g>
    <g transform="matrix(0,1,1,0,849.622,785.265)">
        <path d="M9.065,-62.121L103.142,-62.121L62.121,9.065L-31.956,9.065L9.065,-62.121Z" style="fill:rgb(89,87,156);fill-rule:nonzero;"/>
    </g>
    <g transform="matrix(-0.865651,-0.500648,-0.500648,0.865651,720.903,772.718)">
        <path d="M-51.236,-5.789L9.747,-5.789L-1.595,13.82L-62.537,13.749L-51.236,-5.789Z" style="fill:rgb(61,48,77);fill-rule:nonzero;"/>
    </g>
    <g transform="matrix(1,0,0,1,723.205,797.812)">
        <path d="M0,-16.868L0,-30.45L-7.841,-34.985L-7.841,-12.332L44.95,18.117L44.95,9.06L0,-16.868Z" style="fill:rgb(109,102,179);fill-rule:nonzero;"/>
    </g>
    <g transform="matrix(-0.865644,-0.50066,-0.50066,0.865644,720.903,804.197)">
        <path d="M-51.237,-5.788L9.747,-5.788L-1.595,13.822L-62.537,13.75L-51.237,-5.788Z" style="fill:rgb(61,48,77);fill-rule:nonzero;"/>
    </g>
    <g transform="matrix(1,0,0,1,723.205,829.292)">
        <path d="M0,-16.868L0,-30.449L-7.841,-34.985L-7.841,-12.332L44.95,18.117L44.95,9.06L0,-16.868Z" style="fill:rgb(109,102,179);fill-rule:nonzero;"/>
    </g>
    <g transform="matrix(0,-1,-1,0,818.636,812.888)">
        <path d="M-7.151,24.918L14.667,24.918L24.918,7.151L3.105,7.151L-7.151,24.918Z" style="fill:rgb(197,198,211);fill-rule:nonzero;"/>
    </g>
    <g transform="matrix(0,1,1,0,577.689,378.148)">
        <path d="M-23.007,57.345L-10.978,57.345L-57.566,-23.007L-69.374,-23.007L-23.007,57.345Z" style="fill:rgb(249,174,64);fill-rule:nonzero;"/>
    </g>
    <g transform="matrix(0.866139,0.499804,0.499804,-0.866139,566.163,271.263)">
        <path d="M8.805,-38.228L101.575,-38.228L142.73,32.879L49.965,32.877L8.805,-38.228Z" style="fill:rgb(255,199,134);fill-rule:nonzero;"/>
    </g>
    <g transform="matrix(0,1,1,0,656.132,305.052)">
        <path d="M50.088,-21.097L62.117,-21.097L21.098,50.088L9.068,50.088L50.088,-21.097Z" style="fill:rgb(255,186,100);fill-rule:nonzero;"/>
    </g>
    <g transform="matrix(1,0,0,1,679.021,485.739)">
        <path d="M0,-61.811L0,-20.073C0,-8.987 -19.573,0 -43.718,0C-67.863,0 -87.437,-8.987 -87.437,-20.073L-87.437,-61.811L0,-61.811Z" style="fill:rgb(70,70,130);fill-rule:nonzero;"/>
    </g>
    <g transform="matrix(0,1,1,0,635.302,380.21)">
        <path d="M43.718,-43.719C54.803,-43.719 63.79,-24.145 63.79,-0C63.79,24.145 54.803,43.718 43.718,43.718C32.633,43.718 23.647,24.145 23.647,-0C23.647,-24.145 32.633,-43.719 43.718,-43.719" style="fill:rgb(79,70,94);fill-rule:nonzero;"/>
    </g>
    <g transform="matrix(1,0,0,1,686.833,450.925)">
        <path d="M0,-104.728L0,-23.661C0,-10.592 -23.071,0 -51.531,0C-79.991,0 -103.063,-10.592 -103.063,-23.661L-103.063,-104.728L0,-104.728Z" style="fill:rgb(89,87,156);fill-rule:nonzero;"/>
    </g>
    <g transform="matrix(0,1,1,0,635.303,294.666)">
        <path d="M51.531,-51.532C64.597,-51.532 75.19,-28.46 75.19,0C75.19,28.46 64.597,51.531 51.531,51.531C38.466,51.531 27.873,28.46 27.873,0C27.873,-28.46 38.466,-51.532 51.531,-51.532" style="fill:rgb(79,70,94);fill-rule:nonzero;"/>
    </g>
    <g transform="matrix(0.982602,0.185723,0.185723,-0.982602,592.816,442.374)">
        <path d="M7.917,-0.824C13.029,-1.931 18.883,-2.468 25.218,-2.37L7.917,89.165L-8.505,86.061L7.917,-0.824Z" style="fill:rgb(70,70,130);fill-rule:nonzero;"/>
    </g>
    <g transform="matrix(0,1,1,0,577.69,391.117)">
        <path d="M-23.007,57.344L-10.977,57.344L-57.566,-23.007L-69.374,-23.007L-23.007,57.344Z" style="fill:rgb(249,174,64);fill-rule:nonzero;"/>
    </g>
    <g transform="matrix(0.866139,0.499804,0.499804,-0.866139,566.163,284.231)">
        <path d="M8.805,-38.228L101.575,-38.228L142.73,32.878L49.965,32.877L8.805,-38.228Z" style="fill:rgb(255,199,134);fill-rule:nonzero;"/>
    </g>
    <g transform="matrix(0,1,1,0,656.133,318.022)">
        <path d="M50.088,-21.098L62.118,-21.098L21.098,50.088L9.069,50.088L50.088,-21.098Z" style="fill:rgb(255,186,100);fill-rule:nonzero;"/>
    </g>
    <g transform="matrix(1,0,0,1,646.234,246.564)">
        <path d="M0,48.392C3.191,45.847 3.997,40.955 3.868,37.063C3.556,27.652 -1.572,18.526 -8.198,11.951C-11.15,9.022 -14.904,6.723 -19.075,5.949C-21.316,5.533 -23.66,5.533 -25.662,6.701L-15.508,0.779C-15.297,0.657 -15.081,0.545 -14.86,0.442C-14.786,0.408 -14.71,0.379 -14.637,0.346C-12.208,-0.706 -9.334,-0.476 -6.871,0.331C-4.396,1.141 -2.008,2.54 0.032,4.151C0.093,4.2 0.153,4.251 0.214,4.3C0.332,4.395 0.45,4.491 0.567,4.588C8.034,10.763 13.392,20.477 14.101,30.19C14.439,34.835 13.56,40.609 9.13,43.178L-1.023,49.098C-0.846,48.996 -0.675,48.884 -0.507,48.769C-0.456,48.735 -0.407,48.698 -0.357,48.662C-0.236,48.576 -0.117,48.485 0,48.392" style="fill:rgb(109,102,179);fill-rule:nonzero;"/>
    </g>
    <g transform="matrix(-0.999996,-0.00282683,-0.00282683,0.999996,632.779,294.45)">
        <path d="M-0.057,-39.973C-9.678,-34.454 -17.479,-21.032 -17.478,-9.993C-17.479,1.045 -9.678,5.52 -0.057,0.001C9.566,-5.519 17.366,-18.942 17.366,-29.98C17.366,-41.019 9.565,-45.493 -0.057,-39.973" style="fill:rgb(70,70,130);fill-rule:nonzero;"/>
    </g>
    <g transform="matrix(1,0,0,1,790.093,221.976)">
        <path d="M0,162.754C-0.917,162.023 -1.148,160.616 -1.111,159.498C-1.021,156.794 0.452,154.172 2.355,152.283C3.204,151.441 4.282,150.781 5.481,150.559C6.125,150.439 6.798,150.439 7.374,150.775L-253.693,0.225C-253.753,0.19 -253.815,0.157 -253.878,0.128C-253.9,0.117 -253.922,0.109 -253.943,0.101C-254.641,-0.202 -255.466,-0.137 -256.174,0.096C-256.885,0.328 -257.571,0.731 -258.158,1.193C-258.175,1.207 -258.192,1.222 -258.21,1.236C-258.244,1.263 -258.278,1.291 -258.311,1.318C-260.457,3.093 -261.997,5.884 -262.2,8.675C-262.297,10.01 -262.044,11.668 -260.771,12.406L0.294,162.956C0.243,162.927 0.194,162.895 0.146,162.861C0.131,162.852 0.117,162.841 0.103,162.831C0.068,162.806 0.034,162.78 0,162.754" style="fill:rgb(197,198,211);fill-rule:nonzero;"/>
    </g>
    <g transform="matrix(-0.999996,0.0028733,0.0028733,0.999996,793.96,384.583)">
        <path d="M0.017,-11.484C2.781,-9.899 5.022,-6.042 5.022,-2.87C5.022,0.301 2.781,1.586 0.017,0.001C-2.748,-1.584 -4.989,-5.442 -4.99,-8.614C-4.989,-11.784 -2.749,-13.07 0.017,-11.484" style="fill:rgb(170,172,186);fill-rule:nonzero;"/>
    </g>
    <g transform="matrix(1,0,0,1,529.322,379.159)">
        <path d="M0,-144.777L261.065,5.773C261.015,5.744 260.966,5.711 260.917,5.678C260.903,5.668 260.888,5.658 260.874,5.648C260.839,5.622 260.805,5.597 260.771,5.571C259.854,4.839 259.623,3.433 259.66,2.315C259.686,1.535 259.838,0.765 260.071,0.014L-1.045,-150.55C-1.246,-149.88 -1.378,-149.194 -1.428,-148.508C-1.525,-147.173 -1.272,-145.515 0,-144.777" style="fill:rgb(170,172,186);fill-rule:nonzero;"/>
    </g>
    <g transform="matrix(1,0,0,1,760.421,239.208)">
        <path d="M0,162.754C-0.917,162.023 -1.148,160.616 -1.112,159.498C-1.022,156.795 0.452,154.172 2.355,152.283C3.204,151.441 4.282,150.781 5.481,150.559C6.125,150.44 6.798,150.44 7.373,150.775L-253.693,0.225C-253.753,0.19 -253.815,0.157 -253.879,0.128C-253.9,0.118 -253.922,0.11 -253.943,0.101C-254.641,-0.202 -255.467,-0.136 -256.174,0.096C-256.885,0.329 -257.571,0.731 -258.158,1.193C-258.175,1.207 -258.192,1.222 -258.21,1.236C-258.244,1.264 -258.278,1.291 -258.312,1.318C-260.457,3.093 -261.997,5.884 -262.2,8.675C-262.297,10.01 -262.044,11.668 -260.772,12.406L0.293,162.956C0.243,162.927 0.194,162.895 0.146,162.862C0.131,162.852 0.117,162.842 0.102,162.831C0.067,162.807 0.033,162.78 0,162.754" style="fill:rgb(197,198,211);fill-rule:nonzero;"/>
    </g>
    <g transform="matrix(-0.999996,0.0028733,0.0028733,0.999996,764.288,401.815)">
        <path d="M0.017,-11.484C2.781,-9.898 5.022,-6.042 5.022,-2.87C5.022,0.302 2.781,1.586 0.017,0.001C-2.748,-1.584 -4.989,-5.442 -4.989,-8.613C-4.989,-11.784 -2.748,-13.07 0.017,-11.484" style="fill:rgb(170,172,186);fill-rule:nonzero;"/>
    </g>
    <g transform="matrix(1,0,0,1,499.649,396.392)">
        <path d="M0,-144.778L261.066,5.772C261.015,5.743 260.966,5.71 260.917,5.678C260.903,5.667 260.889,5.658 260.875,5.647C260.839,5.622 260.805,5.596 260.772,5.57C259.855,4.838 259.624,3.432 259.66,2.314C259.687,1.534 259.838,0.764 260.072,0.013L-1.045,-150.55C-1.246,-149.88 -1.378,-149.195 -1.428,-148.509C-1.525,-147.174 -1.272,-145.516 0,-144.778" style="fill:rgb(170,172,186);fill-rule:nonzero;"/>
    </g>
    <g transform="matrix(0,1,1,0,621.949,266.5)">
        <path d="M-158.056,-225.732L264.715,-225.732L225.574,-158.056L-197.039,-158.056L-158.056,-225.732Z" style="fill:rgb(61,48,77);fill-rule:nonzero;"/>
    </g>
    <g transform="matrix(-0.866523,0.499138,0.499138,0.866523,392.452,117.883)">
        <path d="M-86.075,-6.3L-7.974,-6.3L1.683,-23.02L-76.415,-23.018L-86.075,-6.3Z" style="fill:rgb(109,102,124);fill-rule:nonzero;"/>
    </g>
    <g transform="matrix(0,1,1,0,594.412,323.352)">
        <path d="M-214.908,-198.195L207.863,-198.195L198.193,-214.908L-224.576,-214.908L-214.908,-198.195Z" style="fill:rgb(79,70,94);fill-rule:nonzero;"/>
    </g>
    <g transform="matrix(0,1,1,0,608.258,458.39)">
        <path d="M-110.109,303.946L-64.123,303.946L-304.102,-110.109L-349.932,-110.109L-110.109,303.946Z" style="fill:rgb(50,38,66);fill-rule:nonzero;"/>
    </g>
    <g transform="matrix(0.865329,0.501204,0.501204,-0.865329,584.833,16.0046)">
        <path d="M-28.672,-123.449L449.822,-123.449L459.439,-106.705L-19.052,-106.709L-28.672,-123.449Z" style="fill:rgb(109,102,124);fill-rule:nonzero;"/>
    </g>
    <g transform="matrix(0,1,1,0,938.72,358.083)">
        <path d="M-9.801,-26.515L36.185,-26.515L26.514,-9.801L-19.47,-9.801L-9.801,-26.515Z" style="fill:rgb(79,70,94);fill-rule:nonzero;"/>
    </g>
    <g transform="matrix(0,1,1,0,173.199,65.9544)">
        <path d="M223.017,-88.818L269.003,-88.818L88.662,223.017L42.831,223.017L223.017,-88.818Z" style="fill:rgb(61,48,77);fill-rule:nonzero;"/>
    </g>
    <g transform="matrix(-0.865847,0.500308,0.500308,0.865847,132.363,350.058)">
        <path d="M-349.167,-76.896L10.983,-76.896L20.616,-93.63L-339.529,-93.627L-349.167,-76.896Z" style="fill:rgb(109,102,124);fill-rule:nonzero;"/>
    </g>
    <g transform="matrix(0,1,1,0,94.1838,315.487)">
        <path d="M-26.515,-9.802L19.471,-9.802L9.802,-26.515L-36.184,-26.515L-26.515,-9.802Z" style="fill:rgb(79,70,94);fill-rule:nonzero;"/>
    </g>
    <g transform="matrix(0,1,1,0,173.199,442.534)">
        <path d="M223.017,-88.818L269.003,-88.818L88.662,223.017L42.831,223.017L223.017,-88.818Z" style="fill:rgb(61,48,77);fill-rule:nonzero;"/>
    </g>
    <g transform="matrix(-0.865847,0.500308,0.500308,0.865847,132.363,726.638)">
        <path d="M-349.167,-76.896L10.983,-76.896L20.616,-93.63L-339.529,-93.627L-349.167,-76.896Z" style="fill:rgb(109,102,124);fill-rule:nonzero;"/>
    </g>
    <g transform="matrix(0,1,1,0,94.1838,692.067)">
        <path d="M-26.515,-9.802L19.471,-9.802L9.802,-26.515L-36.184,-26.515L-26.515,-9.802Z" style="fill:rgb(79,70,94);fill-rule:nonzero;"/>
    </g>
    <g transform="matrix(0,1,1,0,242.445,485.989)">
        <path d="M-158.055,-225.732L264.715,-225.732L225.574,-158.055L-197.038,-158.055L-158.055,-225.732Z" style="fill:rgb(61,48,77);fill-rule:nonzero;"/>
    </g>
    <g transform="matrix(-0.866526,0.499132,0.499132,0.866526,12.9488,337.373)">
        <path d="M-86.075,-6.301L-7.973,-6.301L1.683,-23.02L-76.414,-23.019L-86.075,-6.301Z" style="fill:rgb(109,102,124);fill-rule:nonzero;"/>
    </g>
    <g transform="matrix(0,1,1,0,214.908,542.841)">
        <path d="M-214.908,-198.194L207.862,-198.194L198.194,-214.907L-224.576,-214.907L-214.908,-198.194Z" style="fill:rgb(79,70,94);fill-rule:nonzero;"/>
    </g>
    <g transform="matrix(0,1,1,0,238.997,579.563)">
        <path d="M-222.292,-171.288L200.622,-171.288L171.13,-222.292L-251.628,-222.292L-222.292,-171.288Z" style="fill:rgb(79,70,94);fill-rule:nonzero;"/>
    </g>
    <g transform="matrix(0.866854,0.498562,0.498562,-0.866854,26.1232,312.358)">
        <path d="M-0.398,-18.2L58.441,-18.2L68.147,-1.488L9.311,-1.489L-0.398,-18.2Z" style="fill:rgb(109,102,124);fill-rule:nonzero;"/>
    </g>
    <g transform="matrix(0,1,1,0,282.716,555.532)">
        <path d="M-198.261,-215.007L224.654,-215.007L215.006,-198.261L-207.908,-198.261L-198.261,-215.007Z" style="fill:rgb(61,48,77);fill-rule:nonzero;"/>
    </g>
    <g transform="matrix(0,1,1,0,178.059,1084.05)">
        <path d="M-110.349,303.707L-64.363,303.707L-303.863,-110.349L-349.693,-110.349L-110.349,303.707Z" style="fill:rgb(79,70,94);fill-rule:nonzero;"/>
    </g>
    <g transform="matrix(0.865764,0.500453,0.500453,-0.865764,154.094,641.982)">
        <path d="M-28.56,-123.205L449.695,-123.205L459.326,-106.47L-18.925,-106.474L-28.56,-123.205Z" style="fill:rgb(109,102,124);fill-rule:nonzero;"/>
    </g>
    <g transform="matrix(0,1,1,0,508.28,983.501)">
        <path d="M-9.802,-26.515L36.184,-26.515L26.515,-9.802L-19.471,-9.802L-9.802,-26.515Z" style="fill:rgb(79,70,94);fill-rule:nonzero;"/>
    </g>
    <g transform="matrix(0,1,1,0,1134.42,599.81)">
        <path d="M-222.219,-171.214L200.551,-171.214L171.058,-222.219L-251.556,-222.219L-222.219,-171.214Z" style="fill:rgb(50,38,66);fill-rule:nonzero;"/>
    </g>
    <g transform="matrix(0.866847,0.498575,0.498575,-0.866847,921.617,332.676)">
        <path d="M-0.398,-18.201L58.441,-18.201L68.147,-1.487L9.311,-1.491L-0.398,-18.201Z" style="fill:rgb(109,102,124);fill-rule:nonzero;"/>
    </g>
    <g transform="matrix(0,1,1,0,1178.14,575.778)">
        <path d="M-198.188,-214.934L224.582,-214.934L214.932,-198.188L-207.836,-198.188L-198.188,-214.934Z" style="fill:rgb(128,128,230);fill-rule:nonzero;"/>
    </g>
    <g transform="matrix(0,1,1,0,1154.72,574.646)">
        <path d="M-158.056,-225.732L264.715,-225.732L225.573,-158.056L-197.039,-158.056L-158.056,-225.732Z" style="fill:rgb(61,48,77);fill-rule:nonzero;"/>
    </g>
    <g transform="matrix(-0.866523,0.499138,0.499138,0.866523,925.224,426.029)">
        <path d="M-86.075,-6.3L-7.974,-6.3L1.683,-23.02L-76.415,-23.018L-86.075,-6.3Z" style="fill:rgb(109,102,124);fill-rule:nonzero;"/>
    </g>
    <g transform="matrix(0,1,1,0,1127.18,631.499)">
        <path d="M-214.908,-198.194L207.862,-198.194L198.193,-214.908L-224.576,-214.908L-214.908,-198.194Z" style="fill:rgb(79,70,94);fill-rule:nonzero;"/>
    </g>
    <g transform="matrix(0,1,1,0,705.973,750.699)">
        <path d="M223.017,-88.817L269.003,-88.817L88.662,223.017L42.831,223.017L223.017,-88.817Z" style="fill:rgb(61,48,77);fill-rule:nonzero;"/>
    </g>
    <g transform="matrix(-0.865847,0.500309,0.500309,0.865847,665.137,1034.8)">
        <path d="M-349.167,-76.895L10.982,-76.895L20.617,-93.629L-339.53,-93.626L-349.167,-76.895Z" style="fill:rgb(109,102,124);fill-rule:nonzero;"/>
    </g>
    <g transform="matrix(0,1,1,0,626.957,1000.23)">
        <path d="M-26.515,-9.801L19.471,-9.801L9.801,-26.515L-36.185,-26.515L-26.515,-9.801Z" style="fill:rgb(79,70,94);fill-rule:nonzero;"/>
    </g>
    <g transform="matrix(0,1,1,0,364.933,301.669)">
        <path d="M-38.132,99.623L-20.13,99.623L-100.003,-38.132L-117.625,-38.132L-38.132,99.623Z" style="fill:rgb(70,70,130);fill-rule:nonzero;"/>
    </g>
    <g transform="matrix(0.866137,0.499807,0.499807,-0.866137,346.482,119.734)">
        <path d="M15.095,-65.539L174.14,-65.539L244.697,56.368L85.66,56.362L15.095,-65.539Z" style="fill:rgb(109,102,179);fill-rule:nonzero;"/>
    </g>
    <g transform="matrix(0,1,1,0,499.416,176.355)">
        <path d="M87.182,-34.861L105.184,-34.861L34.858,87.182L16.859,87.182L87.182,-34.861Z" style="fill:rgb(89,87,156);fill-rule:nonzero;"/>
    </g>
    <g transform="matrix(0,1,1,0,364.933,271.785)">
        <path d="M-38.132,99.623L-20.13,99.623L-100.003,-38.132L-117.625,-38.132L-38.132,99.623Z" style="fill:rgb(70,70,130);fill-rule:nonzero;"/>
    </g>
    <g transform="matrix(0.866137,0.499807,0.499807,-0.866137,346.482,89.8505)">
        <path d="M15.095,-65.539L174.14,-65.539L244.697,56.369L85.66,56.363L15.095,-65.539Z" style="fill:rgb(109,102,179);fill-rule:nonzero;"/>
    </g>
    <g transform="matrix(0,1,1,0,499.415,146.471)">
        <path d="M87.182,-34.86L105.184,-34.86L34.858,87.182L16.858,87.182L87.182,-34.86Z" style="fill:rgb(89,87,156);fill-rule:nonzero;"/>
    </g>
    <g transform="matrix(0,1,1,0,286.574,847.404)">
        <path d="M-63.503,194.077L-45.501,194.077L-194.457,-63.503L-212.079,-63.503L-63.503,194.077Z" style="fill:rgb(70,70,130);fill-rule:nonzero;"/>
    </g>
    <g transform="matrix(0.866227,0.499651,0.499651,-0.866227,268.015,545.72)">
        <path d="M5.84,-100.074L303.199,-100.074L373.778,21.82L76.427,21.813L5.84,-100.074Z" style="fill:rgb(109,102,179);fill-rule:nonzero;"/>
    </g>
    <g transform="matrix(0,1,1,0,515.512,696.719)">
        <path d="M87.182,-34.861L105.184,-34.861L34.859,87.182L16.859,87.182L87.182,-34.861Z" style="fill:rgb(89,87,156);fill-rule:nonzero;"/>
    </g>
    <g transform="matrix(0,1,1,0,286.574,820.681)">
        <path d="M-63.503,194.077L-45.501,194.077L-194.457,-63.503L-212.079,-63.503L-63.503,194.077Z" style="fill:rgb(70,70,130);fill-rule:nonzero;"/>
    </g>
    <g transform="matrix(0.866227,0.499651,0.499651,-0.866227,268.014,518.997)">
        <path d="M5.84,-100.074L303.2,-100.074L373.779,21.82L76.427,21.814L5.84,-100.074Z" style="fill:rgb(109,102,179);fill-rule:nonzero;"/>
    </g>
    <g transform="matrix(0,1,1,0,515.512,669.996)">
        <path d="M87.182,-34.861L105.184,-34.861L34.859,87.182L16.859,87.182L87.182,-34.861Z" style="fill:rgb(89,87,156);fill-rule:nonzero;"/>
    </g>
    <g transform="matrix(-0.866484,0.499205,0.499205,0.866484,519.792,697.545)">
        <path d="M78.3,-214.006L193.297,-214.006L57.235,20.943L-57.764,20.935L78.3,-214.006Z" style="fill:rgb(60,191,237);fill-rule:nonzero;"/>
    </g>
    <g transform="matrix(0,1,1,0,178.075,-38.7387)">
        <path d="M319.467,-127.711L386.026,-127.711L127.552,319.467L61.152,319.467L319.467,-127.711Z" style="fill:rgb(242,82,78);fill-rule:nonzero;"/>
    </g>
    <g transform="matrix(1,0,0,1,468.548,273.109)">
        <path d="M0,-267.401C-13.226,-275.021 -29.511,-275.011 -42.728,-267.377L-468.547,-21.4L-418.184,7.62L28.994,-250.697L0,-267.401Z" style="fill:rgb(250,107,107);fill-rule:nonzero;"/>
    </g>
    <g transform="matrix(0,1,1,0,43.9522,324.68)">
        <path d="M-43.951,6.412L22.608,6.412L-6.413,-43.951L-72.971,-43.951L-43.951,6.412Z" style="fill:rgb(237,65,54);fill-rule:nonzero;"/>
    </g>
    <g transform="matrix(0,1,1,0,574.955,438.975)">
        <path d="M-127.763,320.987L-61.206,320.987L-321.145,-127.764L-387.545,-127.764L-127.763,320.987Z" style="fill:rgb(237,65,54);fill-rule:nonzero;"/>
    </g>
    <g transform="matrix(0.865444,0.501006,0.501006,-0.865444,538.578,-58.0751)">
        <path d="M-24.228,-140.555L494.293,-140.555L523.34,-90.208L4.823,-90.209L-24.228,-140.555Z" style="fill:rgb(250,107,107);fill-rule:nonzero;"/>
    </g>
    <g transform="matrix(0,1,1,0,939.892,304.798)">
        <path d="M6.413,-43.95L72.971,-43.95L43.949,6.413L-22.608,6.413L6.413,-43.95Z" style="fill:rgb(242,82,78);fill-rule:nonzero;"/>
    </g>
    <g transform="matrix(-0.866451,0.499262,0.499262,0.866451,480.782,244.04)">
        <path d="M-77.605,-25.52L9.582,-25.52L6.827,-20.759L-80.361,-20.76L-77.605,-25.52Z" style="fill:rgb(61,48,77);fill-rule:nonzero;"/>
    </g>
    <g transform="matrix(1,0,0,1,535.281,226.043)">
        <path d="M0,-41.52L3.603,-39.441L4.765,-40.111L0,-42.86L-75.544,0.669L-74.382,1.34L0,-41.52Z" style="fill:rgb(70,70,130);fill-rule:nonzero;"/>
    </g>
    <g transform="matrix(-0.866451,0.499262,0.499262,0.866451,472.972,239.543)">
        <path d="M-77.605,-25.52L9.582,-25.52L6.827,-20.759L-80.361,-20.76L-77.605,-25.52Z" style="fill:rgb(61,48,77);fill-rule:nonzero;"/>
    </g>
    <g transform="matrix(1,0,0,1,527.472,221.546)">
        <path d="M0,-41.52L3.603,-39.441L4.765,-40.111L0,-42.86L-75.543,0.669L-74.381,1.34L0,-41.52Z" style="fill:rgb(70,70,130);fill-rule:nonzero;"/>
    </g>
    <g transform="matrix(-0.866446,0.499271,0.499271,0.866446,465.164,235.046)">
        <path d="M-77.605,-25.52L9.583,-25.52L6.827,-20.76L-80.361,-20.759L-77.605,-25.52Z" style="fill:rgb(61,48,77);fill-rule:nonzero;"/>
    </g>
    <g transform="matrix(1,0,0,1,519.663,217.049)">
        <path d="M0,-41.52L3.603,-39.441L4.765,-40.111L0,-42.86L-75.543,0.669L-74.382,1.34L0,-41.52Z" style="fill:rgb(70,70,130);fill-rule:nonzero;"/>
    </g>
    <g transform="matrix(-0.866446,0.499271,0.499271,0.866446,449.545,226.052)">
        <path d="M-77.605,-25.52L9.583,-25.52L6.827,-20.76L-80.36,-20.758L-77.605,-25.52Z" style="fill:rgb(61,48,77);fill-rule:nonzero;"/>
    </g>
    <g transform="matrix(1,0,0,1,504.044,208.055)">
        <path d="M0,-41.521L3.603,-39.442L4.765,-40.111L0,-42.861L-75.543,0.669L-74.382,1.34L0,-41.521Z" style="fill:rgb(70,70,130);fill-rule:nonzero;"/>
    </g>
    <g transform="matrix(-0.866451,0.499262,0.499262,0.866451,441.735,221.556)">
        <path d="M-77.605,-25.52L9.581,-25.52L6.826,-20.759L-80.361,-20.76L-77.605,-25.52Z" style="fill:rgb(61,48,77);fill-rule:nonzero;"/>
    </g>
    <g transform="matrix(1,0,0,1,496.235,203.557)">
        <path d="M0,-41.519L3.603,-39.44L4.765,-40.11L0,-42.86L-75.543,0.67L-74.382,1.341L0,-41.519Z" style="fill:rgb(70,70,130);fill-rule:nonzero;"/>
    </g>
    <g transform="matrix(-0.866451,0.499262,0.499262,0.866451,433.926,217.058)">
        <path d="M-77.605,-25.52L9.582,-25.52L6.827,-20.759L-80.361,-20.76L-77.605,-25.52Z" style="fill:rgb(61,48,77);fill-rule:nonzero;"/>
    </g>
    <g transform="matrix(1,0,0,1,488.425,199.061)">
        <path d="M0,-41.52L3.603,-39.441L4.765,-40.111L0,-42.86L-75.543,0.669L-74.381,1.34L0,-41.52Z" style="fill:rgb(70,70,130);fill-rule:nonzero;"/>
    </g>
    <g transform="matrix(1,0,0,1,462.033,151.104)">
        <path d="M0,-18.268L-12.386,-25.416C-13.405,-26.004 -14.661,-26.004 -15.679,-25.415L-55.321,-2.57C-56.243,-2.037 -56.243,-0.706 -55.321,-0.174L-42.996,6.939C-41.615,7.736 -39.914,7.735 -38.534,6.938L0.001,-15.269C1.155,-15.936 1.154,-17.602 0,-18.268" style="fill:rgb(240,239,243);fill-rule:nonzero;"/>
    </g>
    <g transform="matrix(-0.866261,0.499591,0.499591,0.866261,424.874,155.956)">
        <path d="M-5.042,-13.393L10.538,-13.393L3.569,-1.34L-12.001,-1.36L-5.042,-13.393Z" style="fill:rgb(109,102,179);fill-rule:nonzero;"/>
    </g>
    <g transform="matrix(1,0,0,1,588.216,280.156)">
        <path d="M0,48.393C3.191,45.848 3.997,40.956 3.868,37.063C3.556,27.653 -1.572,18.527 -8.198,11.952C-11.15,9.022 -14.904,6.724 -19.075,5.95C-21.316,5.534 -23.66,5.534 -25.663,6.702L-15.507,0.78C-15.297,0.658 -15.081,0.546 -14.86,0.443C-14.786,0.409 -14.71,0.38 -14.636,0.347C-12.208,-0.705 -9.334,-0.475 -6.871,0.332C-4.396,1.142 -2.008,2.541 0.032,4.152C0.094,4.201 0.153,4.251 0.214,4.301C0.332,4.396 0.45,4.492 0.567,4.589C8.034,10.764 13.392,20.478 14.101,30.191C14.439,34.836 13.56,40.609 9.13,43.179L-1.022,49.098C-0.846,48.997 -0.675,48.885 -0.506,48.77C-0.456,48.736 -0.406,48.699 -0.357,48.663C-0.236,48.576 -0.117,48.486 0,48.393" style="fill:rgb(109,102,179);fill-rule:nonzero;"/>
    </g>
    <g transform="matrix(-0.999996,-0.00282683,-0.00282683,0.999996,574.762,328.041)">
        <path d="M-0.056,-39.972C-9.677,-34.453 -17.478,-21.031 -17.477,-9.992C-17.478,1.046 -9.677,5.52 -0.056,0.002C9.567,-5.518 17.366,-18.942 17.366,-29.979C17.367,-41.018 9.566,-45.492 -0.056,-39.972" style="fill:rgb(70,70,130);fill-rule:nonzero;"/>
    </g>
    <g transform="matrix(0.865645,-0.500658,-0.500658,-0.865645,942.822,849.013)">
        <path d="M0.594,5.263L23.938,5.263L19.597,-2.243L-3.731,-2.215L0.594,5.263Z" style="fill:rgb(61,48,77);fill-rule:nonzero;"/>
    </g>
    <g transform="matrix(1,0,0,1,957.907,845.863)">
        <path d="M0,-6.456L0,-11.655L3.001,-13.391L3.001,-4.72L-17.206,6.935L-17.206,3.468L0,-6.456Z" style="fill:rgb(240,239,243);fill-rule:nonzero;"/>
    </g>
    <g transform="matrix(0.866132,-0.499816,-0.499816,-0.866132,878.695,894.001)">
        <path d="M7.776,12.196L69.327,12.196L45.516,-29.066L-16.016,-29.033L7.776,12.196Z" style="fill:rgb(192,58,54);fill-rule:nonzero;"/>
    </g>
    <g transform="matrix(1,0,0,1,929.015,881.611)">
        <path d="M0,12.716L0,-30.725L3.629,-32.824L3.629,14.815L-49.682,45.54L-49.682,41.348L0,12.716Z" style="fill:rgb(250,107,107);fill-rule:nonzero;"/>
    </g>
    <g transform="matrix(0.866132,-0.499816,-0.499816,-0.866132,819.698,928)">
        <path d="M7.776,12.196L69.327,12.196L45.516,-29.066L-16.016,-29.033L7.776,12.196Z" style="fill:rgb(192,58,54);fill-rule:nonzero;"/>
    </g>
    <g transform="matrix(1,0,0,1,870.019,915.61)">
        <path d="M0,12.716L0,-30.724L3.629,-32.824L3.629,14.815L-49.682,45.54L-49.682,41.348L0,12.716Z" style="fill:rgb(250,107,107);fill-rule:nonzero;"/>
    </g>
    <g transform="matrix(0.866132,-0.499816,-0.499816,-0.866132,760.702,962.114)">
        <path d="M7.776,12.196L69.327,12.196L45.516,-29.066L-16.016,-29.033L7.776,12.196Z" style="fill:rgb(192,58,54);fill-rule:nonzero;"/>
    </g>
    <g transform="matrix(1,0,0,1,811.023,949.725)">
        <path d="M0,12.716L0,-30.724L3.629,-32.824L3.629,14.815L-49.682,45.54L-49.682,41.349L0,12.716Z" style="fill:rgb(250,107,107);fill-rule:nonzero;"/>
    </g>
    <g transform="matrix(0.866132,-0.499816,-0.499816,-0.866132,701.706,996.218)">
        <path d="M7.776,12.196L69.327,12.196L45.516,-29.066L-16.016,-29.033L7.776,12.196Z" style="fill:rgb(192,58,54);fill-rule:nonzero;"/>
    </g>
    <g transform="matrix(1,0,0,1,752.027,983.828)">
        <path d="M0,12.716L0,-30.724L3.629,-32.824L3.629,14.815L-49.682,45.54L-49.682,41.348L0,12.716Z" style="fill:rgb(250,107,107);fill-rule:nonzero;"/>
    </g>
    <g transform="matrix(0.865645,-0.500658,-0.500658,-0.865645,942.822,865.328)">
        <path d="M0.595,5.263L23.938,5.263L19.597,-2.243L-3.731,-2.216L0.595,5.263Z" style="fill:rgb(61,48,77);fill-rule:nonzero;"/>
    </g>
    <g transform="matrix(1,0,0,1,957.907,862.179)">
        <path d="M0,-6.457L0,-11.655L3.001,-13.392L3.001,-4.721L-17.206,6.935L-17.206,3.467L0,-6.457Z" style="fill:rgb(240,239,243);fill-rule:nonzero;"/>
    </g>
    <g transform="matrix(0,1,1,0,177.814,707.224)">
        <path d="M-110.105,303.951L-64.119,303.951L-304.107,-110.105L-349.937,-110.105L-110.105,303.951Z" style="fill:rgb(79,70,94);fill-rule:nonzero;"/>
    </g>
    <g transform="matrix(0.865322,0.501217,0.501217,-0.865322,154.399,264.832)">
        <path d="M-28.674,-123.454L449.825,-123.454L459.441,-106.711L-19.054,-106.713L-28.674,-123.454Z" style="fill:rgb(109,102,124);fill-rule:nonzero;"/>
    </g>
    <g transform="matrix(0,1,1,0,508.281,606.922)">
        <path d="M-9.802,-26.516L36.183,-26.516L26.514,-9.802L-19.47,-9.802L-9.802,-26.516Z" style="fill:rgb(79,70,94);fill-rule:nonzero;"/>
    </g>
    <g transform="matrix(0,1,1,0,705.874,373.848)">
        <path d="M223.116,-88.719L269.102,-88.719L88.562,223.116L42.732,223.116L223.116,-88.719Z" style="fill:rgb(61,48,77);fill-rule:nonzero;"/>
    </g>
    <g transform="matrix(-0.86561,0.500719,0.500719,0.86561,665.26,658.082)">
        <path d="M-349.212,-76.991L11.036,-76.991L20.663,-93.729L-339.583,-93.727L-349.212,-76.991Z" style="fill:rgb(109,102,124);fill-rule:nonzero;"/>
    </g>
    <g transform="matrix(0,1,1,0,626.958,623.479)">
        <path d="M-26.516,-9.802L19.47,-9.802L9.801,-26.516L-36.184,-26.516L-26.516,-9.802Z" style="fill:rgb(79,70,94);fill-rule:nonzero;"/>
    </g>
    <g transform="matrix(0,1,1,0,703.988,848.631)">
        <path d="M-222.22,-171.215L200.55,-171.215L171.057,-222.22L-251.555,-222.22L-222.22,-171.215Z" style="fill:rgb(79,70,94);fill-rule:nonzero;"/>
    </g>
    <g transform="matrix(0.866854,0.498562,0.498562,-0.866854,491.187,581.498)">
        <path d="M-0.398,-18.2L58.441,-18.2L68.147,-1.488L9.311,-1.489L-0.398,-18.2Z" style="fill:rgb(109,102,124);fill-rule:nonzero;"/>
    </g>
    <g transform="matrix(0,1,1,0,747.707,824.6)">
        <path d="M-198.189,-214.934L224.581,-214.934L214.932,-198.188L-207.836,-198.188L-198.189,-214.934Z" style="fill:rgb(128,128,230);fill-rule:nonzero;"/>
    </g>
    <g transform="matrix(0,1,1,0,775.151,794.069)">
        <path d="M-157.988,-225.664L264.782,-225.664L225.641,-157.988L-197.105,-157.988L-157.988,-225.664Z" style="fill:rgb(61,48,77);fill-rule:nonzero;"/>
    </g>
    <g transform="matrix(-0.86578,0.500424,0.500424,0.86578,545.806,645.555)">
        <path d="M-86.096,-6.361L-7.928,-6.361L1.704,-23.095L-76.461,-23.092L-86.096,-6.361Z" style="fill:rgb(109,102,124);fill-rule:nonzero;"/>
    </g>
    <g transform="matrix(0,1,1,0,747.681,850.988)">
        <path d="M-214.908,-198.194L207.862,-198.194L198.194,-214.907L-224.576,-214.907L-214.908,-198.194Z" style="fill:rgb(79,70,94);fill-rule:nonzero;"/>
    </g>
    <g transform="matrix(0,1,1,0,125.546,402.106)">
        <path d="M-75.182,54.663L20.343,54.663L-54.819,-75.182L-150.188,-75.182L-75.182,54.663Z" style="fill:rgb(237,65,54);fill-rule:nonzero;"/>
    </g>
    <g transform="matrix(0.86591,0.5002,0.5002,-0.86591,70.7493,198.038)">
        <path d="M9.299,-56.852L159.251,-56.852L212.075,34.692L62.126,34.69L9.299,-56.852Z" style="fill:rgb(255,125,107);fill-rule:nonzero;"/>
    </g>
    <g transform="matrix(0,1,1,0,247.313,302.498)">
        <path d="M24.427,-67.105L119.952,-67.105L67.105,24.427L-28.42,24.427L24.427,-67.105Z" style="fill:rgb(242,82,78);fill-rule:nonzero;"/>
    </g>
    <g transform="matrix(0,1,1,0,235.66,556.216)">
        <path d="M-55.451,133.613L-24.252,133.613L-133.77,-55.451L-164.812,-55.451L-55.451,133.613Z" style="fill:rgb(237,65,54);fill-rule:nonzero;"/>
    </g>
    <g transform="matrix(0.865619,0.500703,0.500703,-0.865619,198.56,326.068)">
        <path d="M16.829,-65.745L235.244,-65.745L245.042,62.576L26.328,62.577L16.829,-65.745Z" style="fill:rgb(250,107,107);fill-rule:nonzero;"/>
    </g>
    <g transform="matrix(0,1,1,0,368.152,426.914)">
        <path d="M73.852,1.121L105.05,1.121L63.206,73.852L-32.319,73.852L73.852,1.121Z" style="fill:rgb(242,82,78);fill-rule:nonzero;"/>
    </g>
    <g transform="matrix(-0.865977,0.500083,0.500083,0.865977,460.734,343.945)">
        <path d="M128.725,-155.016L150.731,-155.016L41.548,34.496L19.697,34.773L128.725,-155.016Z" style="fill:rgb(255,125,107);fill-rule:nonzero;"/>
    </g>
    <g transform="matrix(0.865623,0.500696,0.500696,-0.865623,224.668,324.055)">
        <path d="M9.671,-37.781L135.31,-37.781L140.773,36.036L15.136,36.035L9.671,-37.781Z" style="fill:rgb(47,85,81);fill-rule:nonzero;"/>
    </g>
    <g transform="matrix(-0.86562,-0.500701,-0.500701,0.86562,308.042,420.777)">
        <path d="M-97.145,-78.021L-28.645,-78.021L-20.94,26.072L-89.439,26.073L-97.145,-78.021Z" style="fill:rgb(70,70,130);fill-rule:nonzero;"/>
    </g>
    <g transform="matrix(-0.563266,0.826276,0.826276,0.563266,226.541,383.334)">
        <path d="M-2.201,-22.512L13.479,-22.512L11.898,-1.162L-3.781,-1.163L-2.201,-22.512Z" style="fill:rgb(79,70,94);fill-rule:nonzero;"/>
    </g>
    <g transform="matrix(-0.563266,0.826276,0.826276,0.563266,250.97,397.449)">
        <path d="M-2.2,-22.511L13.48,-22.511L11.898,-1.162L-3.782,-1.163L-2.2,-22.511Z" style="fill:rgb(79,70,94);fill-rule:nonzero;"/>
    </g>
    <g transform="matrix(-0.563266,0.826276,0.826276,0.563266,275.4,411.564)">
        <path d="M-2.2,-22.512L13.48,-22.512L11.899,-1.163L-3.781,-1.163L-2.2,-22.512Z" style="fill:rgb(79,70,94);fill-rule:nonzero;"/>
    </g>
    <g transform="matrix(-0.563266,0.826276,0.826276,0.563266,299.828,425.679)">
        <path d="M-2.2,-22.511L13.48,-22.511L11.899,-1.163L-3.781,-1.162L-2.2,-22.511Z" style="fill:rgb(79,70,94);fill-rule:nonzero;"/>
    </g>
    <g transform="matrix(-0.865563,-0.5008,-0.5008,0.865563,202.283,346.379)">
        <path d="M-26.996,-66.57L-23.328,-66.57L-17.87,7.247L-21.539,7.246L-26.996,-66.57Z" style="fill:rgb(242,82,78);fill-rule:nonzero;"/>
    </g>
    <g transform="matrix(0,1,1,0,444.492,586.745)">
        <path d="M-75.218,54.627L20.307,54.627L-54.781,-75.218L-150.152,-75.218L-75.218,54.627Z" style="fill:rgb(237,65,54);fill-rule:nonzero;"/>
    </g>
    <g transform="matrix(0.866121,0.499835,0.499835,-0.866121,389.613,382.747)">
        <path d="M9.298,-56.804L159.213,-56.804L212.076,34.718L62.165,34.715L9.298,-56.804Z" style="fill:rgb(255,125,107);fill-rule:nonzero;"/>
    </g>
    <g transform="matrix(0,1,1,0,566.223,487.1)">
        <path d="M24.427,-67.105L119.952,-67.105L67.106,24.427L-28.42,24.427L24.427,-67.105Z" style="fill:rgb(242,82,78);fill-rule:nonzero;"/>
    </g>
    <g transform="matrix(0,1,1,0,677.196,250.054)">
        <path d="M319.469,-127.709L386.027,-127.709L127.553,319.469L61.152,319.469L319.469,-127.709Z" style="fill:rgb(242,82,78);fill-rule:nonzero;"/>
    </g>
    <g transform="matrix(-0.865909,0.500201,0.500201,0.865909,589.829,649.567)">
        <path d="M-521.531,-89.491L-5.105,-89.491L23.989,-139.811L-492.435,-139.809L-521.531,-89.491Z" style="fill:rgb(250,107,107);fill-rule:nonzero;"/>
    </g>
    <g transform="matrix(0,1,1,0,543.073,613.473)">
        <path d="M-43.95,6.413L22.608,6.413L-6.413,-43.95L-72.971,-43.95L-43.95,6.413Z" style="fill:rgb(237,65,54);fill-rule:nonzero;"/>
    </g>
    <g transform="matrix(1,0,0,1,399.524,467.826)">
        <path d="M0,-36.773L47.146,-63.983C51.026,-66.222 55.804,-66.22 59.682,-63.979L153.654,-9.777C157.162,-7.75 157.16,-2.686 153.651,-0.662L106.735,26.416C101.48,29.449 95.005,29.447 89.752,26.41L-0.004,-25.359C-4.396,-27.897 -4.394,-34.237 0,-36.773" style="fill:rgb(242,82,78);fill-rule:nonzero;"/>
    </g>
    <g transform="matrix(1,0,0,1,553.179,405.614)">
        <path d="M0,53.53L-93.972,-0.673C-97.85,-2.913 -102.628,-2.915 -106.508,-0.677L-153.654,26.534C-155.671,27.698 -156.751,29.665 -156.917,31.696C-157.113,29.3 -156.033,26.812 -153.654,25.439L-106.508,-1.771C-102.628,-4.01 -97.85,-4.008 -93.972,-1.767L0,52.435C1.935,53.554 2.762,55.593 2.561,57.54C2.398,55.959 1.571,54.438 0,53.53" style="fill:rgb(237,65,54);fill-rule:nonzero;"/>
    </g>
    <g transform="matrix(1,0,0,1,442.881,415.378)">
        <path d="M0,-2.857C0.078,-2.936 0.168,-3.007 0.272,-3.067L9.239,-8.243C9.977,-8.668 10.886,-8.668 11.623,-8.241L22.121,-2.181L23.337,-2.181L23.337,-0.79C23.34,-0.451 23.173,-0.11 22.837,0.084L13.915,5.234C12.915,5.811 11.683,5.811 10.684,5.233L0.271,-0.778C-0.144,-1.018 -0.353,-1.437 -0.354,-1.857L-0.355,-1.857L-0.355,-3.276L0,-2.857Z" style="fill:rgb(249,159,52);fill-rule:nonzero;"/>
    </g>
    <g transform="matrix(1,0,0,1,443.153,414.186)">
        <path d="M0,-3.157L8.967,-8.333C9.705,-8.759 10.614,-8.759 11.351,-8.332L22.566,-1.858C23.232,-1.472 23.232,-0.51 22.565,-0.125L13.643,5.026C12.643,5.602 11.411,5.602 10.412,5.025L-0.001,-0.986C-0.836,-1.47 -0.835,-2.676 0,-3.157" style="fill:rgb(255,199,134);fill-rule:nonzero;"/>
    </g>
    <g transform="matrix(1,0,0,1,458.51,424.392)">
        <path d="M0,-2.856C0.078,-2.935 0.168,-3.006 0.272,-3.066L9.239,-8.241C9.977,-8.668 10.885,-8.667 11.623,-8.241L22.121,-2.18L23.337,-2.18L23.337,-0.789C23.34,-0.45 23.173,-0.109 22.837,0.085L13.915,5.235C12.915,5.812 11.683,5.812 10.684,5.234L0.271,-0.777C-0.144,-1.017 -0.353,-1.436 -0.354,-1.856L-0.354,-3.275L0,-2.856Z" style="fill:rgb(249,159,52);fill-rule:nonzero;"/>
    </g>
    <g transform="matrix(1,0,0,1,458.782,423.203)">
        <path d="M0,-3.158L8.967,-8.334C9.705,-8.76 10.613,-8.759 11.351,-8.333L22.566,-1.859C23.232,-1.473 23.232,-0.511 22.565,-0.126L13.643,5.025C12.643,5.602 11.411,5.601 10.412,5.023L0,-0.987C-0.836,-1.471 -0.835,-2.677 0,-3.158" style="fill:rgb(255,199,134);fill-rule:nonzero;"/>
    </g>
    <g transform="matrix(1,0,0,1,474.14,433.409)">
        <path d="M0,-2.857C0.078,-2.936 0.168,-3.007 0.272,-3.067L9.239,-8.242C9.977,-8.668 10.885,-8.668 11.623,-8.241L22.121,-2.181L23.337,-2.181L23.337,-0.79C23.34,-0.45 23.173,-0.11 22.837,0.084L13.914,5.234C12.915,5.811 11.684,5.811 10.685,5.233L0.271,-0.778C-0.144,-1.018 -0.352,-1.437 -0.354,-1.857L-0.354,-3.276L0,-2.857Z" style="fill:rgb(249,159,52);fill-rule:nonzero;"/>
    </g>
    <g transform="matrix(1,0,0,1,474.412,432.219)">
        <path d="M0,-3.158L8.967,-8.334C9.704,-8.76 10.613,-8.759 11.351,-8.333L22.565,-1.859C23.232,-1.473 23.232,-0.511 22.565,-0.125L13.642,5.025C12.642,5.602 11.411,5.601 10.412,5.024L-0.001,-0.987C-0.836,-1.471 -0.836,-2.677 0,-3.158" style="fill:rgb(255,199,134);fill-rule:nonzero;"/>
    </g>
    <g transform="matrix(1,0,0,1,489.769,442.425)">
        <path d="M0,-2.857C0.078,-2.936 0.169,-3.007 0.272,-3.067L9.239,-8.242C9.977,-8.668 10.886,-8.668 11.623,-8.241L22.122,-2.181L23.338,-2.181L23.338,-0.79C23.34,-0.45 23.173,-0.109 22.837,0.084L13.915,5.234C12.915,5.811 11.684,5.811 10.685,5.233L0.271,-0.778C-0.144,-1.018 -0.352,-1.437 -0.354,-1.857L-0.355,-1.857L-0.355,-3.276L0,-2.857Z" style="fill:rgb(249,159,52);fill-rule:nonzero;"/>
    </g>
    <g transform="matrix(1,0,0,1,490.041,441.235)">
        <path d="M0,-3.159L8.967,-8.335C9.704,-8.76 10.613,-8.76 11.351,-8.334L22.565,-1.86C23.232,-1.474 23.232,-0.512 22.565,-0.126L13.642,5.024C12.642,5.601 11.411,5.6 10.412,5.023L-0.001,-0.988C-0.836,-1.472 -0.836,-2.677 0,-3.159" style="fill:rgb(255,199,134);fill-rule:nonzero;"/>
    </g>
    <g transform="matrix(1,0,0,1,505.399,451.44)">
        <path d="M0,-2.857C0.078,-2.936 0.168,-3.007 0.272,-3.067L9.239,-8.242C9.976,-8.668 10.885,-8.668 11.623,-8.241L22.121,-2.181L23.337,-2.181L23.337,-0.79C23.339,-0.45 23.173,-0.11 22.837,0.084L13.914,5.235C12.914,5.811 11.683,5.811 10.684,5.233L0.271,-0.778C-0.145,-1.018 -0.353,-1.437 -0.354,-1.857L-0.355,-1.857L-0.355,-3.276L0,-2.857Z" style="fill:rgb(249,159,52);fill-rule:nonzero;"/>
    </g>
    <g transform="matrix(1,0,0,1,505.671,450.25)">
        <path d="M0,-3.158L8.967,-8.333C9.704,-8.76 10.613,-8.759 11.351,-8.333L22.565,-1.858C23.232,-1.473 23.232,-0.51 22.565,-0.125L13.642,5.025C12.642,5.602 11.411,5.601 10.412,5.024L0,-0.987C-0.836,-1.47 -0.835,-2.676 0,-3.158" style="fill:rgb(255,199,134);fill-rule:nonzero;"/>
    </g>
    <g transform="matrix(1,0,0,1,521.028,460.456)">
        <path d="M0,-2.856C0.078,-2.936 0.169,-3.006 0.272,-3.067L9.239,-8.242C9.977,-8.668 10.886,-8.668 11.624,-8.241L22.121,-2.181L23.337,-2.181L23.337,-0.79C23.34,-0.45 23.174,-0.109 22.837,0.084L13.915,5.235C12.915,5.812 11.684,5.811 10.685,5.234L0.272,-0.777C-0.144,-1.017 -0.352,-1.437 -0.354,-1.857L-0.354,-3.276L0,-2.856Z" style="fill:rgb(249,159,52);fill-rule:nonzero;"/>
    </g>
    <g transform="matrix(1,0,0,1,521.3,459.267)">
        <path d="M0,-3.159L8.967,-8.334C9.704,-8.76 10.613,-8.76 11.351,-8.333L22.565,-1.859C23.233,-1.474 23.232,-0.511 22.565,-0.126L13.642,5.024C12.643,5.601 11.411,5.6 10.412,5.023L0,-0.988C-0.836,-1.471 -0.836,-2.677 0,-3.159" style="fill:rgb(255,199,134);fill-rule:nonzero;"/>
    </g>
    <g transform="matrix(1,0,0,1,428.979,423.389)">
        <path d="M0,-2.857C0.078,-2.936 0.168,-3.007 0.272,-3.067L9.239,-8.242C9.977,-8.668 10.885,-8.667 11.623,-8.241L22.121,-2.181L23.337,-2.181L23.337,-0.79C23.339,-0.45 23.173,-0.109 22.837,0.084L13.914,5.235C12.915,5.811 11.683,5.811 10.684,5.233L0.271,-0.778C-0.144,-1.018 -0.353,-1.437 -0.354,-1.857L-0.355,-1.857L-0.355,-3.276L0,-2.857Z" style="fill:rgb(249,159,52);fill-rule:nonzero;"/>
    </g>
    <g transform="matrix(1,0,0,1,429.251,422.2)">
        <path d="M0,-3.159L8.967,-8.334C9.705,-8.76 10.613,-8.76 11.351,-8.333L22.566,-1.859C23.232,-1.473 23.232,-0.511 22.565,-0.126L13.642,5.024C12.643,5.601 11.411,5.6 10.412,5.023L-0.001,-0.988C-0.836,-1.471 -0.836,-2.677 0,-3.159" style="fill:rgb(255,199,134);fill-rule:nonzero;"/>
    </g>
    <g transform="matrix(1,0,0,1,444.608,432.405)">
        <path d="M0,-2.857C0.078,-2.936 0.168,-3.006 0.272,-3.066L9.239,-8.242C9.976,-8.668 10.885,-8.668 11.623,-8.241L22.121,-2.181L23.337,-2.181L23.337,-0.79C23.339,-0.45 23.173,-0.109 22.837,0.085L13.914,5.235C12.915,5.811 11.684,5.811 10.684,5.234L0.271,-0.778C-0.144,-1.017 -0.353,-1.437 -0.354,-1.857L-0.355,-1.857L-0.355,-3.276L0,-2.857Z" style="fill:rgb(249,159,52);fill-rule:nonzero;"/>
    </g>
    <g transform="matrix(1,0,0,1,444.88,431.216)">
        <path d="M0,-3.159L8.967,-8.334C9.704,-8.76 10.613,-8.76 11.351,-8.333L22.566,-1.859C23.232,-1.473 23.232,-0.511 22.565,-0.126L13.642,5.025C12.643,5.601 11.412,5.6 10.412,5.023L0,-0.988C-0.836,-1.471 -0.835,-2.677 0,-3.159" style="fill:rgb(255,199,134);fill-rule:nonzero;"/>
    </g>
    <g transform="matrix(1,0,0,1,460.238,441.421)">
        <path d="M0,-2.856C0.078,-2.936 0.168,-3.007 0.272,-3.066L9.239,-8.242C9.977,-8.668 10.886,-8.667 11.623,-8.241L22.121,-2.181L23.337,-2.181L23.337,-0.79C23.34,-0.45 23.173,-0.109 22.837,0.084L13.914,5.235C12.915,5.812 11.684,5.811 10.684,5.234L0.271,-0.777C-0.144,-1.017 -0.353,-1.437 -0.354,-1.856L-0.355,-1.856L-0.355,-3.276L0,-2.856Z" style="fill:rgb(249,159,52);fill-rule:nonzero;"/>
    </g>
    <g transform="matrix(1,0,0,1,460.51,440.231)">
        <path d="M0,-3.159L8.967,-8.334C9.705,-8.76 10.614,-8.76 11.351,-8.333L22.566,-1.86C23.233,-1.473 23.232,-0.511 22.565,-0.126L13.642,5.024C12.643,5.601 11.412,5.601 10.412,5.023L0,-0.988C-0.836,-1.471 -0.835,-2.677 0,-3.159" style="fill:rgb(255,199,134);fill-rule:nonzero;"/>
    </g>
    <g transform="matrix(1,0,0,1,475.867,450.436)">
        <path d="M0,-2.856C0.078,-2.935 0.168,-3.006 0.272,-3.066L9.239,-8.242C9.977,-8.668 10.886,-8.668 11.623,-8.241L22.121,-2.181L23.337,-2.181L23.337,-0.79C23.339,-0.45 23.173,-0.109 22.837,0.084L13.914,5.235C12.915,5.812 11.683,5.811 10.684,5.234L0.271,-0.777C-0.144,-1.017 -0.353,-1.436 -0.354,-1.857L-0.354,-3.275L0,-2.856Z" style="fill:rgb(249,159,52);fill-rule:nonzero;"/>
    </g>
    <g transform="matrix(1,0,0,1,476.139,449.247)">
        <path d="M0,-3.159L8.967,-8.334C9.705,-8.76 10.614,-8.76 11.351,-8.333L22.566,-1.859C23.233,-1.473 23.232,-0.511 22.565,-0.126L13.642,5.025C12.643,5.601 11.411,5.601 10.412,5.023L0,-0.988C-0.836,-1.471 -0.835,-2.677 0,-3.159" style="fill:rgb(255,199,134);fill-rule:nonzero;"/>
    </g>
    <g transform="matrix(1,0,0,1,491.496,459.452)">
        <path d="M0,-2.856C0.078,-2.935 0.168,-3.006 0.272,-3.066L9.239,-8.242C9.977,-8.668 10.886,-8.667 11.623,-8.241L22.121,-2.181L23.337,-2.181L23.337,-0.79C23.339,-0.45 23.173,-0.109 22.837,0.085L13.914,5.235C12.915,5.812 11.684,5.811 10.684,5.234L0.271,-0.777C-0.144,-1.017 -0.353,-1.436 -0.354,-1.856L-0.355,-1.856L-0.355,-3.275L0,-2.856Z" style="fill:rgb(249,159,52);fill-rule:nonzero;"/>
    </g>
    <g transform="matrix(1,0,0,1,491.769,458.263)">
        <path d="M0,-3.159L8.966,-8.334C9.704,-8.76 10.613,-8.76 11.351,-8.333L22.565,-1.859C23.232,-1.473 23.232,-0.511 22.565,-0.126L13.642,5.025C12.643,5.601 11.411,5.601 10.412,5.023L-0.001,-0.988C-0.836,-1.471 -0.835,-2.677 0,-3.159" style="fill:rgb(255,199,134);fill-rule:nonzero;"/>
    </g>
    <g transform="matrix(1,0,0,1,507.126,468.468)">
        <path d="M0,-2.856C0.078,-2.935 0.168,-3.006 0.272,-3.066L9.239,-8.242C9.977,-8.668 10.886,-8.667 11.623,-8.241L22.121,-2.181L23.337,-2.181L23.337,-0.789C23.34,-0.45 23.173,-0.109 22.837,0.085L13.914,5.235C12.915,5.812 11.684,5.812 10.684,5.234L0.271,-0.777C-0.144,-1.017 -0.353,-1.436 -0.354,-1.856L-0.355,-1.856L-0.355,-3.275L0,-2.856Z" style="fill:rgb(249,159,52);fill-rule:nonzero;"/>
    </g>
    <g transform="matrix(1,0,0,1,507.398,467.278)">
        <path d="M0,-3.159L8.967,-8.334C9.705,-8.76 10.614,-8.76 11.351,-8.333L22.566,-1.859C23.233,-1.473 23.232,-0.511 22.565,-0.126L13.642,5.025C12.643,5.601 11.412,5.601 10.412,5.024L0,-0.988C-0.836,-1.471 -0.835,-2.677 0,-3.159" style="fill:rgb(255,199,134);fill-rule:nonzero;"/>
    </g>
    <g transform="matrix(1,0,0,1,415.077,431.401)">
        <path d="M0,-2.856C0.078,-2.935 0.168,-3.006 0.272,-3.066L9.239,-8.242C9.976,-8.668 10.885,-8.667 11.623,-8.241L22.121,-2.18L23.337,-2.18L23.337,-0.789C23.339,-0.45 23.173,-0.109 22.837,0.085L13.914,5.235C12.915,5.812 11.683,5.812 10.684,5.234L0.271,-0.777C-0.145,-1.017 -0.353,-1.436 -0.354,-1.856L-0.355,-1.856L-0.355,-3.275L0,-2.856Z" style="fill:rgb(249,159,52);fill-rule:nonzero;"/>
    </g>
    <g transform="matrix(1,0,0,1,415.349,430.213)">
        <path d="M0,-3.16L8.967,-8.335C9.704,-8.761 10.613,-8.761 11.351,-8.334L22.565,-1.86C23.232,-1.474 23.232,-0.512 22.565,-0.127L13.642,5.024C12.643,5.601 11.411,5.6 10.412,5.022L-0.001,-0.989C-0.836,-1.472 -0.836,-2.678 0,-3.16" style="fill:rgb(255,199,134);fill-rule:nonzero;"/>
    </g>
    <g transform="matrix(1,0,0,1,430.706,440.417)">
        <path d="M0,-2.856C0.078,-2.935 0.168,-3.006 0.272,-3.066L9.239,-8.242C9.976,-8.668 10.885,-8.667 11.623,-8.24L22.121,-2.181L23.337,-2.181L23.337,-0.789C23.339,-0.45 23.173,-0.109 22.837,0.085L13.914,5.235C12.915,5.812 11.683,5.812 10.684,5.234L0.271,-0.777C-0.145,-1.017 -0.353,-1.436 -0.355,-1.856L-0.355,-3.275L0,-2.856Z" style="fill:rgb(249,159,52);fill-rule:nonzero;"/>
    </g>
    <g transform="matrix(1,0,0,1,430.978,439.228)">
        <path d="M0,-3.159L8.967,-8.334C9.704,-8.76 10.613,-8.76 11.351,-8.333L22.565,-1.859C23.232,-1.473 23.232,-0.511 22.565,-0.126L13.642,5.025C12.643,5.601 11.411,5.601 10.412,5.024L-0.001,-0.988C-0.836,-1.471 -0.836,-2.677 0,-3.159" style="fill:rgb(255,199,134);fill-rule:nonzero;"/>
    </g>
    <g transform="matrix(1,0,0,1,446.336,449.433)">
        <path d="M0,-2.857C0.078,-2.936 0.168,-3.007 0.272,-3.067L9.239,-8.242C9.977,-8.668 10.885,-8.668 11.623,-8.242L22.121,-2.181L23.337,-2.181L23.337,-0.79C23.34,-0.45 23.173,-0.11 22.837,0.084L13.914,5.234C12.915,5.811 11.683,5.81 10.684,5.233L0.271,-0.778C-0.145,-1.018 -0.353,-1.437 -0.354,-1.857L-0.355,-1.857L-0.355,-3.276L0,-2.857Z" style="fill:rgb(249,159,52);fill-rule:nonzero;"/>
    </g>
    <g transform="matrix(1,0,0,1,446.608,448.243)">
        <path d="M0,-3.158L8.967,-8.334C9.705,-8.76 10.613,-8.76 11.351,-8.333L22.565,-1.859C23.232,-1.473 23.232,-0.511 22.565,-0.126L13.642,5.025C12.643,5.602 11.411,5.601 10.412,5.024L-0.001,-0.987C-0.836,-1.471 -0.836,-2.676 0,-3.158" style="fill:rgb(255,199,134);fill-rule:nonzero;"/>
    </g>
    <g transform="matrix(1,0,0,1,461.965,458.449)">
        <path d="M0,-2.857C0.078,-2.936 0.168,-3.007 0.272,-3.067L9.239,-8.243C9.977,-8.668 10.886,-8.668 11.623,-8.241L22.121,-2.181L23.337,-2.181L23.337,-0.79C23.339,-0.45 23.173,-0.11 22.837,0.084L13.914,5.235C12.915,5.811 11.683,5.811 10.684,5.233L0.271,-0.778C-0.144,-1.018 -0.353,-1.437 -0.354,-1.857L-0.355,-1.857L-0.355,-3.276L0,-2.857Z" style="fill:rgb(249,159,52);fill-rule:nonzero;"/>
    </g>
    <g transform="matrix(1,0,0,1,462.237,457.259)">
        <path d="M0,-3.158L8.967,-8.334C9.705,-8.76 10.614,-8.759 11.351,-8.333L22.566,-1.859C23.232,-1.473 23.232,-0.511 22.565,-0.125L13.642,5.025C12.643,5.602 11.411,5.601 10.412,5.024L0,-0.987C-0.836,-1.471 -0.835,-2.677 0,-3.158" style="fill:rgb(255,199,134);fill-rule:nonzero;"/>
    </g>
    <g transform="matrix(1,0,0,1,477.595,467.465)">
        <path d="M0,-2.857C0.078,-2.936 0.168,-3.007 0.272,-3.067L9.239,-8.242C9.977,-8.668 10.885,-8.668 11.623,-8.241L22.121,-2.181L23.337,-2.181L23.337,-0.79C23.34,-0.45 23.173,-0.11 22.837,0.084L13.914,5.235C12.915,5.811 11.683,5.811 10.684,5.233L0.271,-0.778C-0.145,-1.018 -0.353,-1.437 -0.354,-1.857L-0.355,-1.857L-0.355,-3.276L0,-2.857Z" style="fill:rgb(249,159,52);fill-rule:nonzero;"/>
    </g>
    <g transform="matrix(1,0,0,1,477.867,466.274)">
        <path d="M0,-3.158L8.967,-8.333C9.705,-8.76 10.613,-8.759 11.351,-8.333L22.565,-1.859C23.233,-1.473 23.232,-0.511 22.565,-0.126L13.642,5.025C12.643,5.602 11.411,5.601 10.412,5.024L0,-0.987C-0.836,-1.471 -0.835,-2.676 0,-3.158" style="fill:rgb(255,199,134);fill-rule:nonzero;"/>
    </g>
    <g transform="matrix(1,0,0,1,493.224,476.48)">
        <path d="M0,-2.857C0.078,-2.936 0.168,-3.007 0.272,-3.067L9.239,-8.242C9.977,-8.668 10.886,-8.668 11.623,-8.241L22.122,-2.181L23.337,-2.181L23.337,-0.79C23.34,-0.45 23.173,-0.11 22.837,0.084L13.914,5.235C12.915,5.811 11.683,5.811 10.684,5.233L0.271,-0.778C-0.144,-1.017 -0.353,-1.437 -0.354,-1.857L-0.355,-1.857L-0.355,-3.276L0,-2.857Z" style="fill:rgb(249,159,52);fill-rule:nonzero;"/>
    </g>
    <g transform="matrix(1,0,0,1,493.496,475.291)">
        <path d="M0,-3.159L8.967,-8.334C9.705,-8.76 10.614,-8.76 11.351,-8.334L22.565,-1.86C23.233,-1.474 23.232,-0.512 22.565,-0.126L13.642,5.024C12.643,5.601 11.411,5.6 10.412,5.023L0,-0.988C-0.836,-1.472 -0.835,-2.678 0,-3.159" style="fill:rgb(255,199,134);fill-rule:nonzero;"/>
    </g>
    <g transform="matrix(1,0,0,1,401.175,439.414)">
        <path d="M0,-2.857C0.078,-2.936 0.169,-3.007 0.272,-3.067L9.239,-8.242C9.977,-8.668 10.886,-8.668 11.623,-8.241L22.121,-2.181L23.337,-2.181L23.337,-0.79C23.34,-0.45 23.173,-0.109 22.837,0.084L13.915,5.235C12.915,5.811 11.683,5.811 10.684,5.233L0.271,-0.778C-0.144,-1.018 -0.353,-1.437 -0.354,-1.857L-0.355,-1.857L-0.355,-3.276L0,-2.857Z" style="fill:rgb(249,159,52);fill-rule:nonzero;"/>
    </g>
    <g transform="matrix(1,0,0,1,401.447,438.225)">
        <path d="M0,-3.159L8.966,-8.334C9.704,-8.76 10.613,-8.76 11.351,-8.334L22.565,-1.86C23.232,-1.474 23.232,-0.512 22.565,-0.127L13.642,5.024C12.642,5.601 11.411,5.6 10.412,5.023L-0.001,-0.988C-0.836,-1.471 -0.835,-2.677 0,-3.159" style="fill:rgb(255,199,134);fill-rule:nonzero;"/>
    </g>
    <g transform="matrix(1,0,0,1,416.804,448.43)">
        <path d="M0,-2.858C0.078,-2.937 0.168,-3.008 0.272,-3.068L9.239,-8.243C9.977,-8.669 10.886,-8.669 11.623,-8.242L22.121,-2.182L23.337,-2.182L23.337,-0.791C23.34,-0.451 23.173,-0.111 22.837,0.083L13.915,5.234C12.915,5.811 11.684,5.81 10.685,5.233L0.271,-0.778C-0.144,-1.018 -0.352,-1.438 -0.354,-1.858L-0.355,-1.858L-0.355,-3.277L0,-2.858Z" style="fill:rgb(249,159,52);fill-rule:nonzero;"/>
    </g>
    <g transform="matrix(1,0,0,1,417.077,447.239)">
        <path d="M0,-3.158L8.966,-8.333C9.704,-8.76 10.613,-8.759 11.351,-8.333L22.565,-1.859C23.232,-1.473 23.232,-0.51 22.565,-0.125L13.642,5.025C12.643,5.602 11.411,5.601 10.412,5.024L-0.001,-0.987C-0.836,-1.47 -0.836,-2.677 0,-3.158" style="fill:rgb(255,199,134);fill-rule:nonzero;"/>
    </g>
    <g transform="matrix(1,0,0,1,432.434,457.445)">
        <path d="M0,-2.856C0.078,-2.936 0.169,-3.006 0.272,-3.067L9.239,-8.242C9.977,-8.668 10.886,-8.668 11.623,-8.241L22.122,-2.181L23.338,-2.181L23.338,-0.79C23.34,-0.45 23.173,-0.109 22.837,0.084L13.915,5.235C12.915,5.812 11.684,5.811 10.685,5.234L0.271,-0.777C-0.144,-1.018 -0.353,-1.437 -0.354,-1.857L-0.355,-1.857L-0.355,-3.275L0,-2.856Z" style="fill:rgb(249,159,52);fill-rule:nonzero;"/>
    </g>
    <g transform="matrix(1,0,0,1,432.706,456.256)">
        <path d="M0,-3.159L8.966,-8.334C9.705,-8.76 10.613,-8.76 11.351,-8.334L22.565,-1.859C23.232,-1.474 23.232,-0.512 22.565,-0.126L13.642,5.024C12.643,5.601 11.411,5.6 10.412,5.023L-0.001,-0.988C-0.836,-1.471 -0.836,-2.677 0,-3.159" style="fill:rgb(255,199,134);fill-rule:nonzero;"/>
    </g>
    <g transform="matrix(1,0,0,1,448.063,466.461)">
        <path d="M0,-2.856C0.078,-2.936 0.168,-3.006 0.272,-3.067L9.239,-8.242C9.977,-8.668 10.885,-8.668 11.623,-8.241L22.121,-2.181L23.337,-2.181L23.337,-0.79C23.339,-0.45 23.173,-0.109 22.837,0.084L13.914,5.235C12.915,5.812 11.683,5.811 10.684,5.234L0.271,-0.778C-0.145,-1.017 -0.353,-1.436 -0.354,-1.857L-0.355,-1.857L-0.355,-3.276L0,-2.856Z" style="fill:rgb(249,159,52);fill-rule:nonzero;"/>
    </g>
    <g transform="matrix(1,0,0,1,448.335,465.272)">
        <path d="M0,-3.159L8.967,-8.334C9.705,-8.76 10.613,-8.76 11.351,-8.334L22.565,-1.859C23.232,-1.473 23.232,-0.511 22.565,-0.126L13.642,5.024C12.643,5.601 11.411,5.601 10.412,5.023L-0.001,-0.988C-0.836,-1.471 -0.835,-2.677 0,-3.159" style="fill:rgb(255,199,134);fill-rule:nonzero;"/>
    </g>
    <g transform="matrix(1,0,0,1,463.693,475.476)">
        <path d="M0,-2.856C0.078,-2.935 0.168,-3.006 0.272,-3.066L9.239,-8.242C9.976,-8.668 10.885,-8.667 11.623,-8.241L22.121,-2.181L23.337,-2.181L23.337,-0.79C23.339,-0.45 23.173,-0.109 22.837,0.085L13.914,5.235C12.915,5.812 11.683,5.811 10.684,5.234L0.271,-0.777C-0.145,-1.017 -0.353,-1.436 -0.354,-1.857L-0.355,-1.857L-0.355,-3.275L0,-2.856Z" style="fill:rgb(249,159,52);fill-rule:nonzero;"/>
    </g>
    <g transform="matrix(1,0,0,1,463.965,474.287)">
        <path d="M0,-3.159L8.967,-8.334C9.704,-8.76 10.613,-8.76 11.351,-8.333L22.565,-1.859C23.232,-1.473 23.232,-0.511 22.565,-0.126L13.642,5.025C12.643,5.601 11.411,5.6 10.412,5.023L-0.001,-0.988C-0.836,-1.471 -0.835,-2.677 0,-3.159" style="fill:rgb(255,199,134);fill-rule:nonzero;"/>
    </g>
    <g transform="matrix(1,0,0,1,479.322,484.492)">
        <path d="M0,-2.856C0.079,-2.936 0.169,-3.006 0.272,-3.066L9.239,-8.242C9.977,-8.668 10.886,-8.667 11.623,-8.241L22.122,-2.181L23.338,-2.181L23.338,-0.79C23.34,-0.45 23.173,-0.109 22.837,0.085L13.915,5.235C12.915,5.812 11.684,5.811 10.685,5.234L0.271,-0.777C-0.144,-1.017 -0.352,-1.436 -0.354,-1.856L-0.354,-3.276L0,-2.856Z" style="fill:rgb(249,159,52);fill-rule:nonzero;"/>
    </g>
    <g transform="matrix(1,0,0,1,479.594,483.303)">
        <path d="M0,-3.159L8.967,-8.334C9.705,-8.76 10.613,-8.76 11.351,-8.333L22.566,-1.859C23.232,-1.473 23.232,-0.511 22.565,-0.126L13.642,5.025C12.643,5.601 11.411,5.601 10.412,5.024L-0.001,-0.987C-0.836,-1.471 -0.836,-2.677 0,-3.159" style="fill:rgb(255,199,134);fill-rule:nonzero;"/>
    </g>
    <g transform="matrix(0.866118,0.49984,0.49984,-0.866118,298.694,581.263)">
        <path d="M-10.61,-32.183L124.435,-32.183L120.151,-39.612L-14.894,-39.612L-10.61,-32.183Z" style="fill:rgb(240,239,243);fill-rule:nonzero;"/>
    </g>
    <g transform="matrix(0.866114,0.499846,0.499846,-0.866114,313.95,572.45)">
        <path d="M-10.61,-32.183L124.435,-32.183L120.151,-39.613L-14.894,-39.613L-10.61,-32.183Z" style="fill:rgb(240,239,243);fill-rule:nonzero;"/>
    </g>
    <g transform="matrix(1,0,0,1,701.64,441.767)">
        <path d="M0,-6.619L18.791,-17.464C20.336,-18.356 22.241,-18.355 23.787,-17.463L47.288,-3.896C48.686,-3.088 48.685,-1.07 47.287,-0.264L28.588,10.528C26.494,11.737 23.914,11.736 21.819,10.527L-0.001,-2.07C-1.751,-3.082 -1.751,-5.609 0,-6.619" style="fill:rgb(242,82,78);fill-rule:nonzero;"/>
    </g>
    <g transform="matrix(1,0,0,1,701.64,427.191)">
        <path d="M0,9.471L18.791,-1.374C20.336,-2.266 22.241,-2.265 23.787,-1.372L47.288,12.194C47.728,12.449 47.979,12.834 48.142,13.252C48.497,12.341 48.246,11.233 47.288,10.679L23.787,-2.887C22.241,-3.781 20.336,-3.781 18.791,-2.889L0,7.956C-1.129,8.608 -1.52,9.888 -1.192,10.989C-1.012,10.383 -0.621,9.829 0,9.471" style="fill:rgb(237,65,54);fill-rule:nonzero;"/>
    </g>
    <g transform="matrix(1,0,0,1,671.69,459.014)">
        <path d="M0,-6.619L18.791,-17.464C20.336,-18.356 22.241,-18.355 23.787,-17.463L47.288,-3.896C48.686,-3.088 48.685,-1.07 47.287,-0.263L28.588,10.528C26.494,11.737 23.913,11.736 21.819,10.527L-0.001,-2.069C-1.752,-3.082 -1.751,-5.608 0,-6.619" style="fill:rgb(242,82,78);fill-rule:nonzero;"/>
    </g>
    <g transform="matrix(1,0,0,1,671.69,444.438)">
        <path d="M0,9.471L18.791,-1.374C20.336,-2.265 22.241,-2.265 23.787,-1.372L47.288,12.195C47.728,12.449 47.978,12.834 48.142,13.252C48.496,12.342 48.246,11.233 47.288,10.679L23.787,-2.887C22.241,-3.78 20.336,-3.781 18.791,-2.888L0,7.956C-1.13,8.609 -1.52,9.888 -1.192,10.989C-1.012,10.383 -0.622,9.83 0,9.471" style="fill:rgb(237,65,54);fill-rule:nonzero;"/>
    </g>
    <g transform="matrix(1,0,0,1,641.741,476.261)">
        <path d="M0,-6.619L18.791,-17.464C20.336,-18.356 22.241,-18.355 23.787,-17.462L47.288,-3.896C48.686,-3.088 48.685,-1.07 47.287,-0.263L28.588,10.529C26.494,11.737 23.913,11.736 21.819,10.527L-0.001,-2.07C-1.751,-3.081 -1.751,-5.608 0,-6.619" style="fill:rgb(242,82,78);fill-rule:nonzero;"/>
    </g>
    <g transform="matrix(1,0,0,1,641.741,461.686)">
        <path d="M0,9.47L18.791,-1.375C20.336,-2.267 22.241,-2.266 23.787,-1.373L47.288,12.194C47.728,12.448 47.979,12.833 48.141,13.252C48.497,12.341 48.246,11.233 47.288,10.678L23.787,-2.887C22.241,-3.781 20.336,-3.782 18.791,-2.889L0,7.955C-1.13,8.607 -1.52,9.887 -1.192,10.988C-1.012,10.382 -0.622,9.829 0,9.47" style="fill:rgb(237,65,54);fill-rule:nonzero;"/>
    </g>
    <g transform="matrix(1,0,0,1,611.791,493.51)">
        <path d="M0,-6.621L18.791,-17.466C20.336,-18.357 22.241,-18.357 23.787,-17.464L47.288,-3.898C48.686,-3.09 48.685,-1.071 47.287,-0.265L28.588,10.527C26.494,11.736 23.913,11.735 21.819,10.525L-0.001,-2.071C-1.752,-3.083 -1.751,-5.61 0,-6.621" style="fill:rgb(242,82,78);fill-rule:nonzero;"/>
    </g>
    <g transform="matrix(1,0,0,1,611.791,478.933)">
        <path d="M0,9.471L18.791,-1.375C20.336,-2.266 22.241,-2.266 23.787,-1.373L47.288,12.194C47.728,12.448 47.979,12.834 48.142,13.252C48.496,12.341 48.246,11.233 47.288,10.678L23.787,-2.887C22.241,-3.781 20.336,-3.781 18.791,-2.889L0,7.955C-1.13,8.608 -1.52,9.888 -1.192,10.988C-1.012,10.382 -0.622,9.829 0,9.471" style="fill:rgb(237,65,54);fill-rule:nonzero;"/>
    </g>
    <g transform="matrix(1,0,0,1,581.842,510.757)">
        <path d="M0,-6.621L18.79,-17.466C20.336,-18.357 22.241,-18.357 23.786,-17.464L47.288,-3.897C48.686,-3.09 48.685,-1.071 47.287,-0.265L28.588,10.527C26.494,11.736 23.913,11.735 21.819,10.525L-0.002,-2.071C-1.752,-3.083 -1.751,-5.61 0,-6.621" style="fill:rgb(242,82,78);fill-rule:nonzero;"/>
    </g>
    <g transform="matrix(1,0,0,1,629.129,494.974)">
        <path d="M0,11.885L-23.501,-1.68C-25.046,-2.574 -26.952,-2.574 -28.497,-1.682L-47.288,9.162C-48.417,9.815 -48.808,11.095 -48.48,12.195C-48.299,11.589 -47.91,11.036 -47.288,10.678L-28.497,-0.167C-26.952,-1.059 -25.046,-1.058 -23.501,-0.166L0,13.401C0.44,13.655 0.69,14.041 0.854,14.459C1.208,13.548 0.958,12.44 0,11.885" style="fill:rgb(237,65,54);fill-rule:nonzero;"/>
    </g>
    <g transform="matrix(1,0,0,1,551.892,528.004)">
        <path d="M0,-6.621L18.791,-17.465C20.336,-18.357 22.241,-18.357 23.787,-17.464L47.288,-3.897C48.686,-3.089 48.685,-1.071 47.287,-0.265L28.588,10.527C26.494,11.736 23.913,11.735 21.819,10.525L-0.001,-2.071C-1.752,-3.083 -1.751,-5.61 0,-6.621" style="fill:rgb(242,82,78);fill-rule:nonzero;"/>
    </g>
    <g transform="matrix(1,0,0,1,551.892,513.428)">
        <path d="M0,9.471L18.791,-1.374C20.336,-2.266 22.241,-2.265 23.786,-1.372L47.288,12.194C47.728,12.448 47.978,12.834 48.141,13.252C48.497,12.341 48.246,11.233 47.288,10.679L23.786,-2.887C22.241,-3.781 20.336,-3.781 18.791,-2.888L0,7.955C-1.13,8.608 -1.52,9.888 -1.192,10.989C-1.012,10.383 -0.622,9.829 0,9.471" style="fill:rgb(237,65,54);fill-rule:nonzero;"/>
    </g>
    <g transform="matrix(1,0,0,1,521.942,545.25)">
        <path d="M0,-6.619L18.791,-17.464C20.336,-18.356 22.241,-18.355 23.787,-17.463L47.288,-3.896C48.686,-3.088 48.685,-1.07 47.287,-0.264L28.588,10.528C26.494,11.737 23.913,11.736 21.819,10.527L-0.001,-2.07C-1.752,-3.082 -1.751,-5.609 0,-6.619" style="fill:rgb(242,82,78);fill-rule:nonzero;"/>
    </g>
    <g transform="matrix(1,0,0,1,521.942,530.675)">
        <path d="M0,9.471L18.791,-1.374C20.336,-2.266 22.241,-2.265 23.787,-1.372L47.288,12.194C47.728,12.448 47.979,12.834 48.142,13.252C48.496,12.341 48.246,11.233 47.288,10.679L23.787,-2.887C22.241,-3.781 20.336,-3.781 18.791,-2.889L0,7.956C-1.13,8.608 -1.52,9.888 -1.192,10.989C-1.012,10.383 -0.622,9.829 0,9.471" style="fill:rgb(237,65,54);fill-rule:nonzero;"/>
    </g>
    <g transform="matrix(1,0,0,1,986.559,432.531)">
        <path d="M0,-61.147L-97.672,-4.698C-98.576,-4.175 -99.134,-3.211 -99.134,-2.168L-99.134,-1.003C-99.134,-0.163 -98.223,0.363 -97.495,-0.057L0.408,-56.64C1.032,-57.001 1.416,-57.666 1.416,-58.386L1.416,-60.33C1.416,-61.056 0.63,-61.51 0,-61.147" style="fill:rgb(192,58,54);fill-rule:nonzero;"/>
    </g>
    <g transform="matrix(1,0,0,1,986.559,424.86)">
        <path d="M0,-61.147L-97.672,-4.698C-98.576,-4.175 -99.134,-3.211 -99.134,-2.168L-99.134,-1.003C-99.134,-0.163 -98.223,0.363 -97.495,-0.057L0.408,-56.64C1.032,-57.001 1.416,-57.666 1.416,-58.386L1.416,-60.331C1.416,-61.056 0.63,-61.51 0,-61.147" style="fill:rgb(192,58,54);fill-rule:nonzero;"/>
    </g>
    <g transform="matrix(1,0,0,1,986.559,417.189)">
        <path d="M0,-61.148L-97.672,-4.698C-98.576,-4.176 -99.134,-3.211 -99.134,-2.169L-99.134,-1.003C-99.134,-0.163 -98.223,0.363 -97.495,-0.058L0.408,-56.64C1.032,-57.001 1.416,-57.667 1.416,-58.387L1.416,-60.331C1.416,-61.056 0.63,-61.511 0,-61.148" style="fill:rgb(192,58,54);fill-rule:nonzero;"/>
    </g>
    <g transform="matrix(1,0,0,1,986.559,409.518)">
        <path d="M0,-61.148L-97.672,-4.699C-98.576,-4.176 -99.134,-3.212 -99.134,-2.169L-99.134,-1.004C-99.134,-0.163 -98.223,0.363 -97.495,-0.058L0.408,-56.64C1.032,-57.001 1.416,-57.667 1.416,-58.387L1.416,-60.331C1.416,-61.057 0.63,-61.511 0,-61.148" style="fill:rgb(192,58,54);fill-rule:nonzero;"/>
    </g>
    <g transform="matrix(1,0,0,1,986.559,401.846)">
        <path d="M0,-61.147L-97.672,-4.698C-98.576,-4.175 -99.134,-3.211 -99.134,-2.168L-99.134,-1.003C-99.134,-0.163 -98.223,0.363 -97.495,-0.057L0.408,-56.64C1.032,-57 1.416,-57.666 1.416,-58.386L1.416,-60.33C1.416,-61.056 0.63,-61.51 0,-61.147" style="fill:rgb(192,58,54);fill-rule:nonzero;"/>
    </g>
    <g transform="matrix(1,0,0,1,986.559,394.176)">
        <path d="M0,-61.147L-97.672,-4.698C-98.576,-4.176 -99.134,-3.211 -99.134,-2.168L-99.134,-1.003C-99.134,-0.163 -98.223,0.363 -97.495,-0.057L0.408,-56.64C1.032,-57.001 1.416,-57.666 1.416,-58.386L1.416,-60.33C1.416,-61.056 0.63,-61.51 0,-61.147" style="fill:rgb(192,58,54);fill-rule:nonzero;"/>
    </g>
    <g transform="matrix(1,0,0,1,880.885,493.198)">
        <path d="M0,-61.148L-97.673,-4.698C-98.577,-4.176 -99.134,-3.212 -99.134,-2.169L-99.134,-1.004C-99.134,-0.163 -98.224,0.363 -97.495,-0.058L0.408,-56.64C1.032,-57.001 1.416,-57.667 1.416,-58.386L1.416,-60.331C1.416,-61.057 0.629,-61.511 0,-61.148" style="fill:rgb(192,58,54);fill-rule:nonzero;"/>
    </g>
    <g transform="matrix(1,0,0,1,880.885,485.527)">
        <path d="M0,-61.148L-97.673,-4.699C-98.577,-4.176 -99.134,-3.211 -99.134,-2.169L-99.134,-1.004C-99.134,-0.164 -98.224,0.363 -97.495,-0.058L0.408,-56.641C1.032,-57.001 1.416,-57.667 1.416,-58.387L1.416,-60.331C1.416,-61.057 0.629,-61.511 0,-61.148" style="fill:rgb(192,58,54);fill-rule:nonzero;"/>
    </g>
    <g transform="matrix(1,0,0,1,880.885,477.855)">
        <path d="M0,-61.147L-97.673,-4.698C-98.577,-4.175 -99.134,-3.211 -99.134,-2.168L-99.134,-1.003C-99.134,-0.163 -98.224,0.363 -97.495,-0.057L0.408,-56.64C1.032,-57.001 1.416,-57.666 1.416,-58.386L1.416,-60.33C1.416,-61.056 0.629,-61.51 0,-61.147" style="fill:rgb(192,58,54);fill-rule:nonzero;"/>
    </g>
    <g transform="matrix(1,0,0,1,880.885,470.183)">
        <path d="M0,-61.146L-97.673,-4.697C-98.577,-4.175 -99.134,-3.21 -99.134,-2.167L-99.134,-1.002C-99.134,-0.162 -98.224,0.364 -97.495,-0.056L0.408,-56.639C1.032,-57 1.416,-57.665 1.416,-58.385L1.416,-60.329C1.416,-61.056 0.629,-61.51 0,-61.146" style="fill:rgb(192,58,54);fill-rule:nonzero;"/>
    </g>
    <g transform="matrix(1,0,0,1,880.885,462.513)">
        <path d="M0,-61.148L-97.673,-4.698C-98.577,-4.176 -99.134,-3.211 -99.134,-2.169L-99.134,-1.004C-99.134,-0.163 -98.224,0.363 -97.495,-0.058L0.408,-56.64C1.032,-57.001 1.416,-57.667 1.416,-58.386L1.416,-60.331C1.416,-61.057 0.629,-61.511 0,-61.148" style="fill:rgb(192,58,54);fill-rule:nonzero;"/>
    </g>
    <g transform="matrix(1,0,0,1,880.885,454.843)">
        <path d="M0,-61.148L-97.673,-4.698C-98.577,-4.176 -99.134,-3.212 -99.134,-2.169L-99.134,-1.004C-99.134,-0.164 -98.224,0.363 -97.495,-0.058L0.408,-56.64C1.032,-57.001 1.416,-57.667 1.416,-58.387L1.416,-60.331C1.416,-61.057 0.629,-61.511 0,-61.148" style="fill:rgb(192,58,54);fill-rule:nonzero;"/>
    </g>
    <g transform="matrix(1,0,0,1,79.5146,301.783)">
        <path d="M0,4.213L0.001,4.026C2.911,4.771 5.133,4.546 6.679,3.359C8.215,2.176 8.987,0.134 8.995,-2.756C9.004,-6.118 7.826,-9.439 5.441,-12.731C3.065,-16.018 -0.231,-18.879 -4.429,-21.303C-7.336,-22.981 -9.909,-24.103 -12.159,-24.676C-14.408,-25.259 -16.61,-25.308 -18.757,-24.853L-14.239,-13.804C-11.451,-14.197 -8.771,-13.651 -6.179,-12.154C-4.792,-11.354 -3.684,-10.417 -2.863,-9.349C-2.043,-8.28 -1.634,-7.132 -1.638,-5.89C-1.647,-2.626 -4.435,-2.596 -10.009,-5.814L-12.553,-7.283L-12.58,2.189L-10.084,3.63C-8.038,4.812 -6.364,5.953 -5.094,7.039C-3.813,8.13 -2.897,9.188 -2.325,10.2C-1.753,11.224 -1.469,12.378 -1.473,13.653C-1.478,15.313 -2.026,16.217 -3.128,16.352C-4.239,16.491 -5.99,15.865 -8.39,14.48C-9.949,13.58 -11.641,12.35 -13.485,10.79C-15.319,9.225 -17.134,7.406 -18.9,5.341L-18.93,15.802C-16.771,18.005 -14.756,19.829 -12.902,21.263C-11.048,22.696 -9.021,24.054 -6.841,25.313C-1.534,28.377 2.62,29.521 5.62,28.765C8.61,28.004 10.112,25.448 10.124,21.119C10.142,14.734 6.768,9.1 0,4.213" style="fill:rgb(240,239,243);fill-rule:nonzero;"/>
    </g>
    <g transform="matrix(1,0,0,1,117.084,307.584)">
        <path d="M0,30.822C-1.556,32.147 -4.006,31.843 -7.334,29.923L-9.772,28.514L-9.698,2.407L-6.504,4.252C-3.512,5.979 -1.277,8.293 0.18,11.204C1.647,14.12 2.374,17.709 2.362,21.983C2.349,26.554 1.565,29.503 0,30.822M8.473,8.453C4.946,2.586 -0.079,-2.23 -6.591,-5.99L-20.628,-14.094L-20.76,32.527L-7.641,40.102C-0.89,44 4.356,44.916 8.098,42.86C11.839,40.805 13.721,35.882 13.743,28.102C13.763,20.873 12.01,14.324 8.473,8.453" style="fill:rgb(240,239,243);fill-rule:nonzero;"/>
    </g>
</svg>
